<svg id="Group_965" data-name="Group 965" xmlns="http://www.w3.org/2000/svg" width="247.879" height="140.802" viewBox="0 0 247.879 140.802">
  <g id="Group_39" data-name="Group 39" transform="translate(0 47.654)">
    <g id="Group_8" data-name="Group 8" transform="translate(2.599 2.721)">
      <path id="Path_3" data-name="Path 3" d="M91.634,40.878s16.912,8.041,17.449,34.411-6.646,42.13-26.806,48.154S46.826,110.9,45.318,95.156,48,43.86,80.083,37.075C80.083,37.075,87.322,36.172,91.634,40.878Z" transform="translate(-45.056 -37.006)" fill="#f8d5b7"/>
    </g>
    <g id="Group_10" data-name="Group 10">
      <g id="Group_9" data-name="Group 9">
        <path id="Path_4" data-name="Path 4" d="M81.255,39.172c7.5,2.221,14.124,5.98,18.547,12.647,4.532,6.828,6.633,15.073,7.687,23.114,2.013,15.364-.471,32.7-13.235,42.96a26.622,26.622,0,0,1-18.9,6.059c-6.786-.608-12.975-4.339-17.549-9.248C46.827,102.92,46.913,85.755,51.95,71.312a58.1,58.1,0,0,1,12.81-21.5,35.853,35.853,0,0,1,9.259-6.994,33.94,33.94,0,0,1,11.444-3.051c1.953-.254,2.95-3.524.524-3.87-7.719-1.1-15.263,2.665-21.1,7.457A55.6,55.6,0,0,0,50.2,63.08c-7.423,16.037-9.952,36.339,1.1,51.405,9.525,12.988,26.215,18.758,40.829,10.587,16-8.946,21.627-27.575,20.451-44.927-.689-10.191-2.831-21.107-8.6-29.72-4.871-7.266-13.449-14.172-22.72-12.6-.717.119-.614,1.167,0,1.349Z" transform="translate(-43.816 -35.707)" fill="#1a1818"/>
      </g>
    </g>
    <g id="Group_11" data-name="Group 11" transform="translate(89.083 5.114)">
      <path id="Path_5" data-name="Path 5" d="M89.475,52.441a1.6,1.6,0,0,1,1.255.289,1.575,1.575,0,0,1,.5.926,2.469,2.469,0,0,1-.1,1.177,3.663,3.663,0,0,1-.461,1l-.31.348-.5.115a1.971,1.971,0,0,0-.484,1.448,1.861,1.861,0,0,0,.6,1.138,2.682,2.682,0,0,0,1.253.637,2.8,2.8,0,0,0,1.488-.057,4.8,4.8,0,0,0,1.928-1.081,8.879,8.879,0,0,0,1.485-1.756,9.769,9.769,0,0,0,1.022-2.085,11.932,11.932,0,0,0,.541-2.064V51.9l-.155-.7a5.735,5.735,0,0,0-1.85-1.735,6.018,6.018,0,0,0-2.567-.87,5.133,5.133,0,0,0-5.075,2.72c-.23.337-.469.4-.714.195a2.489,2.489,0,0,1-.635-.926,4.481,4.481,0,0,1-.348-1.351,1.629,1.629,0,0,1,.193-1.119,5.4,5.4,0,0,1,1.175-1.389,5.545,5.545,0,0,1,1.718-.771,6.742,6.742,0,0,1,2.412-.251,8.986,8.986,0,0,1,2.334.5,8.876,8.876,0,0,1,2.1,1.1,8.51,8.51,0,0,1,1.678,1.544,6.346,6.346,0,0,1,.985,1.793,8.114,8.114,0,0,1,.4,2.1,4.627,4.627,0,0,1-.289,1.7,15.087,15.087,0,0,1-.83,1.949c-.335.656-.7,1.289-1.081,1.892a16.829,16.829,0,0,1-1.079,1.523,7.409,7.409,0,0,1-.888.888,9.393,9.393,0,0,1-1.081.771,3.725,3.725,0,0,1-2.064.6,5.5,5.5,0,0,1-2.064-.442,3.643,3.643,0,0,1-1.659-1.485,6.389,6.389,0,0,1-.83-2.259,6.714,6.714,0,0,1,.04-2.487,4.313,4.313,0,0,1,1.387-2.644A1.277,1.277,0,0,1,89.475,52.441Z" transform="translate(-86.334 -29.891)" fill="#fbaf00"/>
      <path id="Path_6" data-name="Path 6" d="M95.065,50.028a3.069,3.069,0,0,1-.811-1.138A2.414,2.414,0,0,1,94.08,47.6a1.13,1.13,0,0,1,.792-.907c.618-.18,1.278-.354,1.986-.52a9.949,9.949,0,0,1,2.122-.27,5.618,5.618,0,0,1,1.986.308,3.429,3.429,0,0,1,1.584,1.177,5.461,5.461,0,0,1,1.041,3.145,16.464,16.464,0,0,1-.329,3.9,27.679,27.679,0,0,1-1.1,3.954q-.695,1.93-1.312,3.281c-.438.308-.771.417-1,.327a.879.879,0,0,1-.5-.559,2.531,2.531,0,0,1-.115-1.022,4.2,4.2,0,0,1,.193-1.06,20.526,20.526,0,0,1,1.041-2.567q.578-1.175,1.041-2.334a11.794,11.794,0,0,0,.675-2.355,6.351,6.351,0,0,0-.094-2.546l-.117-.348-.193-.193-.27-.115-.115-.078-.386-.155-.386-.038-.463.038-.926.27-3.011,1.5A1.415,1.415,0,0,1,95.065,50.028Z" transform="translate(-77.877 -29.659)" fill="#fbaf00"/>
      <path id="Path_7" data-name="Path 7" d="M103.868,60.76a1.8,1.8,0,0,1-.637,1.659,1.755,1.755,0,0,1-1.465.27,2.34,2.34,0,0,1-1.351-.966,2.484,2.484,0,0,1-.289-2.045,18.712,18.712,0,0,1,1.33-4.148,4.2,4.2,0,0,1,1.486-1.833,1.692,1.692,0,0,1,1.563-.075,5.321,5.321,0,0,1,1.563,1.1,14.089,14.089,0,0,1,1.485,1.716q.713.965,1.312,1.756a9.036,9.036,0,0,0,1.062,1.215c.308.283.551.31.731.078q.349-1.119.733-2.353a8.492,8.492,0,0,0,.406-2.374,4.008,4.008,0,0,0-.5-2.064,3.427,3.427,0,0,0-1.988-1.429,4.976,4.976,0,0,0-1.582-.289,16.72,16.72,0,0,0-1.756.059c-.606.052-1.2.109-1.793.174a10.67,10.67,0,0,1-1.7.057,2.652,2.652,0,0,1-1.638-.616,1.1,1.1,0,0,1-.174-1.429,3.876,3.876,0,0,1,.752-1.079,3.3,3.3,0,0,1,.907-.618,7.546,7.546,0,0,1,1.119-.4c.411-.117.861-.264,1.349-.444a28.011,28.011,0,0,1,2.8-.79c.863-.195,1.743-.348,2.644-.465s1.852-.212,2.856-.289,2.122-.193,3.356-.346a1.6,1.6,0,0,1,1.041.656,2.9,2.9,0,0,1,.6,1.253,2.109,2.109,0,0,1-.1,1.236,1.1,1.1,0,0,1-1,.635,6.769,6.769,0,0,1-.714-.057c-.323-.04-.662-.078-1.022-.117s-.7-.075-1.022-.115a6.769,6.769,0,0,0-.714-.057q-1.389-.038-2.585-.1a21.165,21.165,0,0,0-2.391.021,15.83,15.83,0,0,0-2.47.367,19.034,19.034,0,0,0-2.74.867,23.968,23.968,0,0,1,5.634-.348,7.336,7.336,0,0,1,3.512,1.062,4.149,4.149,0,0,1,1.7,2.391,9.738,9.738,0,0,1,.193,3.648,6.276,6.276,0,0,1-.289,1.312,13.667,13.667,0,0,1-.637,1.659,14.932,14.932,0,0,1-.83,1.582,3.81,3.81,0,0,1-.905,1.081,1.2,1.2,0,0,1-1.293.23,5.093,5.093,0,0,1-1.467-.907,15.275,15.275,0,0,1-1.525-1.5q-.77-.867-1.465-1.563a6.519,6.519,0,0,0-1.293-1.041.884.884,0,0,0-1.022-.04,2.447,2.447,0,0,0-.714.83,2.794,2.794,0,0,0-.308.928,1.628,1.628,0,0,0,.038.731c.065.195.174.279.329.251a.637.637,0,0,1,.482.1.974.974,0,0,1,.27.329,1.129,1.129,0,0,1,.115.385Q103.868,60.681,103.868,60.76Z" transform="translate(-71.325 -30.878)" fill="#fbaf00"/>
      <path id="Path_8" data-name="Path 8" d="M109.742,50.028a3.069,3.069,0,0,1-.811-1.138,2.414,2.414,0,0,1-.174-1.293,1.133,1.133,0,0,1,.792-.907q.927-.27,1.986-.52a9.949,9.949,0,0,1,2.122-.27,5.629,5.629,0,0,1,1.988.308,3.424,3.424,0,0,1,1.582,1.177,5.446,5.446,0,0,1,1.041,3.145,16.462,16.462,0,0,1-.329,3.9,27.4,27.4,0,0,1-1.1,3.954q-.691,1.93-1.312,3.281c-.438.308-.771.417-1,.327a.879.879,0,0,1-.5-.559,2.53,2.53,0,0,1-.115-1.022,4.194,4.194,0,0,1,.193-1.06,20.528,20.528,0,0,1,1.041-2.567q.578-1.175,1.041-2.334a11.941,11.941,0,0,0,.677-2.355,6.391,6.391,0,0,0-.1-2.546l-.115-.348-.195-.193-.27-.115-.115-.078-.385-.155-.386-.038-.463.038-.926.27-3.011,1.5A1.417,1.417,0,0,1,109.742,50.028Z" transform="translate(-61.803 -29.659)" fill="#fbaf00"/>
      <path id="Path_9" data-name="Path 9" d="M120.912,53.111a1.416,1.416,0,0,1-1.1-.308,2.735,2.735,0,0,1-1.022-2.141,1.719,1.719,0,0,1,.425-1.14,2.916,2.916,0,0,1,1.7-.23,2.665,2.665,0,0,1,1.33.675,3.713,3.713,0,0,1,.888,1.293,4.122,4.122,0,0,1,.327,1.622,12.354,12.354,0,0,1-.115,1.638,14.6,14.6,0,0,1-.308,1.638,14.887,14.887,0,0,1-.907,2.856,17.744,17.744,0,0,0-.945,2.818,3.087,3.087,0,0,0,1.215.463,11.187,11.187,0,0,0,1.641.193q.849.038,1.659,0c.541-.025.976-.038,1.312-.038a.955.955,0,0,1,.308-.04,6.022,6.022,0,0,0,1-1.563,12.035,12.035,0,0,0,.637-1.812c.166-.631.3-1.255.4-1.871s.205-1.2.31-1.737q.267-1.465.5-2.99t.578-3.049a25.922,25.922,0,0,1,.867-2.971,14.4,14.4,0,0,1,1.37-2.8.947.947,0,0,1,1.043-.444,1.667,1.667,0,0,1,.905.771,3.851,3.851,0,0,1,.5,1.37,2.222,2.222,0,0,1-.136,1.349,12.385,12.385,0,0,0-1.716,2.778,23.824,23.824,0,0,0-1.14,3.107q-.462,1.6-.809,3.2t-.771,3.107q-.39,1.389-.926,2.837a6.672,6.672,0,0,1-1.622,2.487.575.575,0,0,1-.423.155h-.233a24.83,24.83,0,0,1-2.778.233,11.98,11.98,0,0,1-2.741-.233,3.583,3.583,0,0,1-1.909-.983,3.01,3.01,0,0,1-.733-1.6,6.042,6.042,0,0,1,.077-2.026c.14-.731.314-1.485.52-2.257s.4-1.536.58-2.3a9.267,9.267,0,0,0,.27-2.1A.035.035,0,0,1,120.912,53.111Z" transform="translate(-50.788 -32.683)" fill="#fbaf00"/>
      <path id="Path_10" data-name="Path 10" d="M121.111,44.931a2.183,2.183,0,0,1,.578-1.389,1.307,1.307,0,0,1,1.911.021,1.431,1.431,0,0,1,.4,1.06l.038.348q-.5.732-.4,1.022c.063.193.249.277.559.249a3.861,3.861,0,0,0,1.2-.367,8.468,8.468,0,0,0,1.467-.849,8.885,8.885,0,0,0,1.349-1.175,4.1,4.1,0,0,0,.888-1.389,2.381,2.381,0,0,1,1.022-.792,5.554,5.554,0,0,1,1.446-.444,3.741,3.741,0,0,1,1.236-.019c.333.065.463.226.385.484a17.751,17.751,0,0,1-1.871,2.351,15.913,15.913,0,0,1-2.085,1.873,10.223,10.223,0,0,1-2.16,1.253,6.053,6.053,0,0,1-2.141.5,4.509,4.509,0,0,1-1.37-.134,4.2,4.2,0,0,1-1.215-.522,2.838,2.838,0,0,1-.869-.867A2.51,2.51,0,0,1,121.111,44.931Z" transform="translate(-48.246 -34.844)" fill="#fbaf00"/>
      <path id="Path_11" data-name="Path 11" d="M129.42,50.729a1.419,1.419,0,0,1-1.1-.308,2.729,2.729,0,0,1-1.025-2.143,1.718,1.718,0,0,1,.425-1.138,3.682,3.682,0,0,1,2.007-.463,3.114,3.114,0,0,1,1.657.6,3.588,3.588,0,0,1,1.1,1.387,4.2,4.2,0,0,1,.367,1.949,8.481,8.481,0,0,1-.6,2.9q-.559,1.427-1.1,2.816c-.205.566-.411,1.152-.618,1.756a7.662,7.662,0,0,0-.386,1.793,4.3,4.3,0,0,0,1.563-.733q.83-.578,1.7-1.291c.576-.478,1.163-.953,1.754-1.429a9.158,9.158,0,0,1,1.777-1.138c.023-.438.057-.88.1-1.33a9.914,9.914,0,0,1,.212-1.37,10.689,10.689,0,0,1,.4-1.622c.193-.591.4-1.2.637-1.812s.476-1.211.733-1.775a15.844,15.844,0,0,1,.771-1.506c.335-.411.681-.559,1.041-.444a1.691,1.691,0,0,1,.907.773,3.89,3.89,0,0,1,.5,1.37,2.238,2.238,0,0,1-.136,1.349,6.966,6.966,0,0,0-.559.867q-.289.522-.541,1.062c-.168.36-.327.714-.482,1.062s-.283.649-.386.905c-.155.36-.3.733-.425,1.119s-.258.786-.386,1.2a2.8,2.8,0,0,1,1.215,1.2,5.642,5.642,0,0,1,.656,1.852,6.581,6.581,0,0,1,.04,2.007,3.7,3.7,0,0,1-.637,1.7q-.541.732-1.062.714a1.575,1.575,0,0,1-.983-.425,3.77,3.77,0,0,1-.792-.985,4.463,4.463,0,0,1-.442-1c-.1-.438-.195-.861-.27-1.274a10,10,0,0,1-.155-1.312,2.443,2.443,0,0,1-.348.27,10.828,10.828,0,0,0-1.234,1.06q-.695.676-1.448,1.33a17.761,17.761,0,0,1-1.523,1.2,4.193,4.193,0,0,1-1.467.7,1.693,1.693,0,0,1-1.312-.233,2.769,2.769,0,0,1-1-1.544,2.712,2.712,0,0,1-.23-.924,3.885,3.885,0,0,1,.038-.966c.052-.436.115-.853.193-1.253a11.007,11.007,0,0,1,.31-1.215q.308-1.2.656-2.393t.656-2.393a1.944,1.944,0,0,1,.057-.327c.038-.168.071-.354.1-.559h-.27A2.581,2.581,0,0,0,129.42,50.729Zm9.531,6.25a8.735,8.735,0,0,0-.1,1.523,5.5,5.5,0,0,0,.212,1.41l.115-.115a3.733,3.733,0,0,0,.522-1.584,1.269,1.269,0,0,0-.714-1.234Z" transform="translate(-41.47 -30.223)" fill="#fbaf00"/>
      <path id="Path_12" data-name="Path 12" d="M139.07,52.441a1.6,1.6,0,0,1,1.255.289,1.576,1.576,0,0,1,.5.926,2.47,2.47,0,0,1-.1,1.177,3.6,3.6,0,0,1-.463,1l-.308.348-.5.115a1.963,1.963,0,0,0-.484,1.448,1.861,1.861,0,0,0,.6,1.138,2.682,2.682,0,0,0,1.253.637,2.793,2.793,0,0,0,1.485-.057,4.8,4.8,0,0,0,1.93-1.081,8.881,8.881,0,0,0,1.485-1.756,9.87,9.87,0,0,0,1.022-2.085,11.93,11.93,0,0,0,.541-2.064V51.9l-.155-.7a5.742,5.742,0,0,0-1.852-1.735,6.01,6.01,0,0,0-2.565-.87,5.128,5.128,0,0,0-5.074,2.72c-.23.337-.469.4-.714.195a2.491,2.491,0,0,1-.637-.926,4.543,4.543,0,0,1-.348-1.351,1.639,1.639,0,0,1,.195-1.119,5.4,5.4,0,0,1,1.175-1.389,5.521,5.521,0,0,1,1.718-.771,6.737,6.737,0,0,1,2.412-.251,8.985,8.985,0,0,1,2.334.5,8.874,8.874,0,0,1,2.1,1.1,8.509,8.509,0,0,1,1.678,1.544,6.4,6.4,0,0,1,.985,1.793,8.115,8.115,0,0,1,.4,2.1,4.626,4.626,0,0,1-.289,1.7,15.089,15.089,0,0,1-.83,1.949c-.335.656-.7,1.289-1.081,1.892a16.83,16.83,0,0,1-1.079,1.523,7.409,7.409,0,0,1-.888.888,9.582,9.582,0,0,1-1.081.771,3.725,3.725,0,0,1-2.064.6,5.5,5.5,0,0,1-2.064-.442,3.632,3.632,0,0,1-1.659-1.485,6.387,6.387,0,0,1-.83-2.259,6.712,6.712,0,0,1,.038-2.487,5.3,5.3,0,0,1,.947-2.181,5,5,0,0,1,.442-.463A1.277,1.277,0,0,1,139.07,52.441Z" transform="translate(-32.019 -29.891)" fill="#fbaf00"/>
      <path id="Path_13" data-name="Path 13" d="M137.2,46.581a1.313,1.313,0,0,1-.637-.482,3.688,3.688,0,0,1-.522-.907,2.355,2.355,0,0,1-.212-.79,2.882,2.882,0,0,1,.983-2.374,2.991,2.991,0,0,1,2.644-.1,15.843,15.843,0,0,1,1.967.733c.7.308,1.4.593,2.122.849a13.506,13.506,0,0,0,2.141.578,4.649,4.649,0,0,0,1.988-.038,1.571,1.571,0,0,1,.731.463,3.432,3.432,0,0,1,.637.867,2.341,2.341,0,0,1,.27,1,.9.9,0,0,1-.327.792,10.5,10.5,0,0,1-3.627-.522,15.641,15.641,0,0,1-2.414-1.119q-1.021-.6-1.967-1.041a4.327,4.327,0,0,0-2.334-.289l-.463.23-.308.348-.117.348-.038.463.038.541C137.6,46.5,137.413,46.646,137.2,46.581Z" transform="translate(-32.131 -34.276)" fill="#fbaf00"/>
      <path id="Path_14" data-name="Path 14" d="M142.946,44.184a1.164,1.164,0,0,1-.926,0,2.522,2.522,0,0,1-.87-.559,1.63,1.63,0,0,1-.461-.811.736.736,0,0,1,.249-.752,1.231,1.231,0,0,0,.289-.136.534.534,0,0,0,.251-.52,4.192,4.192,0,0,0-.077-.6c-.05-.3-.09-.612-.115-.947a3.007,3.007,0,0,1,.077-.964,1.187,1.187,0,0,1,.541-.733,1.494,1.494,0,0,1,.983.212,3.1,3.1,0,0,1,.867.694,1.364,1.364,0,0,1,.369.811q.019.405-.522.559a.52.52,0,0,0-.193.115,1.061,1.061,0,0,0-.23.714c0,.3.013.606.038.926a8.813,8.813,0,0,1,.019,1A2.08,2.08,0,0,1,142.946,44.184Z" transform="translate(-26.827 -38.148)" fill="#fbaf00"/>
      <path id="Path_15" data-name="Path 15" d="M150.3,48.217a8.422,8.422,0,0,1,.52,2.47,10.687,10.687,0,0,1-.1,2.181,11.648,11.648,0,0,1-.4,1.756c-.168.513-.3.926-.4,1.234l.809.5c.593.362,1.119.689,1.582.985a7,7,0,0,1,1.389,1.215q.27-.886.541-1.967c.178-.721.342-1.454.482-2.2s.27-1.492.385-2.238.214-1.441.289-2.083q.116-.886.31-1.949a4.538,4.538,0,0,1,.733-1.833c.333-.411.668-.559,1-.444a1.715,1.715,0,0,1,.87.752,3.665,3.665,0,0,1,.5,1.351,2.079,2.079,0,0,1-.134,1.312,3.137,3.137,0,0,0-.792,1.678q-.173,1.025-.327,1.793c-.13.593-.27,1.268-.425,2.026s-.333,1.525-.538,2.3-.438,1.511-.7,2.219a13.234,13.234,0,0,1-.811,1.833.414.414,0,0,0-.193.153.267.267,0,0,0-.115.019.154.154,0,0,1-.077.021,1.418,1.418,0,0,1-.463-.059,1.329,1.329,0,0,1-.348-.212c-.23-.233-.45-.463-.656-.7s-.411-.448-.616-.656A16.334,16.334,0,0,0,151.07,58.4a18.049,18.049,0,0,0-1.737-1.117,11.924,11.924,0,0,1-.83,1.946,10.956,10.956,0,0,1-1.215,1.833,4.206,4.206,0,0,1-.541.522,1.391,1.391,0,0,1-1.041.367,2.159,2.159,0,0,1-1.93-1.351,4.763,4.763,0,0,1-.444-1.775,3.485,3.485,0,0,1,.406-1.852,3.154,3.154,0,0,1,.482-.733,4.976,4.976,0,0,1,.752-.712,3.445,3.445,0,0,1,.87-.5,1.865,1.865,0,0,1,.867-.134,1.742,1.742,0,0,1,.423.153c.155-.333.367-.836.637-1.5a14.4,14.4,0,0,0,.637-1.93,3.854,3.854,0,0,0,.136-1.5q-.1-.578-.87-.308a1.418,1.418,0,0,1-1.041-.425,2.2,2.2,0,0,1-.578-1,2.326,2.326,0,0,1-.021-1.157,1.516,1.516,0,0,1,.637-.926,1.923,1.923,0,0,1,1.293-.444,1.9,1.9,0,0,1,1.062.444,3.679,3.679,0,0,1,.79.926A5.087,5.087,0,0,1,150.3,48.217Zm-3.667,8.027a.866.866,0,0,0-.773-.019,1.258,1.258,0,0,0-.5.6.888.888,0,0,0-.1.465.838.838,0,0,0,.136.4.465.465,0,0,0,.249.212c.09.025.161-.013.212-.115.155-.283.285-.534.388-.752S146.477,56.552,146.632,56.244Z" transform="translate(-23.916 -29.759)" fill="#fbaf00"/>
    </g>
    <g id="Group_12" data-name="Group 12" transform="translate(75.761 48.756)">
      <path id="Path_16" data-name="Path 16" d="M82.1,70.925a1.411,1.411,0,0,1-1.1-.31,2.674,2.674,0,0,1-.752-.945,2.7,2.7,0,0,1-.27-1.194,1.719,1.719,0,0,1,.425-1.14,2.916,2.916,0,0,1,1.7-.23,2.665,2.665,0,0,1,1.33.675,3.713,3.713,0,0,1,.888,1.293,4.122,4.122,0,0,1,.327,1.622,12.36,12.36,0,0,1-.115,1.638,14.722,14.722,0,0,1-.308,1.641,14.911,14.911,0,0,1-.907,2.854,17.746,17.746,0,0,0-.945,2.818,3.087,3.087,0,0,0,1.215.463,11.184,11.184,0,0,0,1.641.193q.849.038,1.659,0c.541-.025.976-.038,1.312-.038a.955.955,0,0,1,.308-.04,5.968,5.968,0,0,0,1-1.563,12.034,12.034,0,0,0,.637-1.812q.251-.946.4-1.871t.31-1.737c.178-.976.346-1.976.5-2.99s.348-2.032.578-3.049a25.515,25.515,0,0,1,.87-2.971,14.393,14.393,0,0,1,1.368-2.8c.335-.413.681-.562,1.043-.444a1.666,1.666,0,0,1,.905.771,3.849,3.849,0,0,1,.5,1.37,2.222,2.222,0,0,1-.136,1.349,12.432,12.432,0,0,0-1.716,2.778,23.825,23.825,0,0,0-1.14,3.107q-.462,1.6-.809,3.2t-.771,3.107q-.387,1.389-.926,2.837A6.713,6.713,0,0,1,89.506,82a.582.582,0,0,1-.423.153H88.85a24.346,24.346,0,0,1-2.778.23,11.862,11.862,0,0,1-2.74-.23,3.57,3.57,0,0,1-1.909-.985,3,3,0,0,1-.733-1.6,6.042,6.042,0,0,1,.077-2.026c.14-.731.314-1.485.52-2.257s.4-1.536.58-2.3a9.267,9.267,0,0,0,.27-2.1A.035.035,0,0,1,82.1,70.925Z" transform="translate(-79.975 -56.817)" fill="#fbaf00"/>
      <path id="Path_17" data-name="Path 17" d="M82.3,62.744a2.184,2.184,0,0,1,.578-1.389,1.307,1.307,0,0,1,1.911.021,1.431,1.431,0,0,1,.4,1.06l.038.348c-.333.488-.469.83-.4,1.022s.249.277.559.249a3.861,3.861,0,0,0,1.2-.367,8.467,8.467,0,0,0,1.467-.849,8.886,8.886,0,0,0,1.349-1.175,4.1,4.1,0,0,0,.888-1.389,2.38,2.38,0,0,1,1.022-.792,5.568,5.568,0,0,1,1.448-.444,3.728,3.728,0,0,1,1.234-.019c.333.065.461.226.386.484A17.758,17.758,0,0,1,92.5,61.855a15.911,15.911,0,0,1-2.085,1.873,10.224,10.224,0,0,1-2.16,1.253,6.054,6.054,0,0,1-2.141.5,4.509,4.509,0,0,1-1.37-.134,4.2,4.2,0,0,1-1.215-.522,2.822,2.822,0,0,1-.869-.87A2.518,2.518,0,0,1,82.3,62.744Z" transform="translate(-77.433 -58.978)" fill="#fbaf00"/>
      <path id="Path_18" data-name="Path 18" d="M90.605,68.542a1.426,1.426,0,0,1-1.1-.308,2.735,2.735,0,0,1-1.022-2.143,1.718,1.718,0,0,1,.425-1.138,3.683,3.683,0,0,1,2.007-.463,3.114,3.114,0,0,1,1.657.6,3.568,3.568,0,0,1,1.1,1.387,4.226,4.226,0,0,1,.369,1.949,8.534,8.534,0,0,1-.6,2.9q-.559,1.427-1.1,2.816c-.205.566-.411,1.152-.616,1.756a7.564,7.564,0,0,0-.388,1.793,4.33,4.33,0,0,0,1.563-.733q.83-.578,1.7-1.293t1.756-1.427a9.085,9.085,0,0,1,1.775-1.138c.023-.438.057-.88.1-1.33a9.918,9.918,0,0,1,.212-1.37,10.683,10.683,0,0,1,.4-1.622c.193-.591.4-1.2.637-1.812s.476-1.209.733-1.777a16.065,16.065,0,0,1,.771-1.5.949.949,0,0,1,1.043-.444,1.678,1.678,0,0,1,.905.773,3.851,3.851,0,0,1,.5,1.37,2.238,2.238,0,0,1-.136,1.349,6.967,6.967,0,0,0-.559.867q-.289.522-.538,1.062c-.17.36-.329.714-.484,1.062s-.283.65-.386.905c-.155.36-.3.733-.425,1.119s-.258.786-.386,1.2a2.791,2.791,0,0,1,1.215,1.2,5.643,5.643,0,0,1,.656,1.852,6.5,6.5,0,0,1,.04,2.005,3.7,3.7,0,0,1-.637,1.7q-.541.732-1.062.714a1.564,1.564,0,0,1-.983-.425A3.8,3.8,0,0,1,98.959,79a4.483,4.483,0,0,1-.442-1.006c-.1-.436-.193-.859-.27-1.272a10,10,0,0,1-.155-1.312,2.3,2.3,0,0,1-.348.27,10.828,10.828,0,0,0-1.234,1.06q-.695.676-1.448,1.33a18.236,18.236,0,0,1-1.523,1.2,4.221,4.221,0,0,1-1.467.693,1.693,1.693,0,0,1-1.312-.233,2.778,2.778,0,0,1-1-1.542,2.735,2.735,0,0,1-.23-.926,3.885,3.885,0,0,1,.038-.966q.079-.654.193-1.253a11.166,11.166,0,0,1,.31-1.217q.308-1.194.656-2.391t.656-2.393a1.946,1.946,0,0,1,.057-.327,5.638,5.638,0,0,0,.1-.562h-.27A2.659,2.659,0,0,0,90.605,68.542Zm9.531,6.25a8.742,8.742,0,0,0-.1,1.523,5.5,5.5,0,0,0,.212,1.41l.117-.115a3.758,3.758,0,0,0,.52-1.584,1.269,1.269,0,0,0-.714-1.234Z" transform="translate(-70.657 -54.356)" fill="#fbaf00"/>
    </g>
    <g id="Group_13" data-name="Group 13" transform="translate(155.505 40.638)">
      <path id="Path_19" data-name="Path 19" d="M122.218,78.37a20.09,20.09,0,0,0-.849,6.25,1.666,1.666,0,0,1,.867.522,3.048,3.048,0,0,1,.578.945,2.661,2.661,0,0,1,.193,1.081,1.367,1.367,0,0,1-.327.888,2.64,2.64,0,0,1-1.041.656,1.31,1.31,0,0,1-1.062-.059,2.364,2.364,0,0,1-.809-.677,3.69,3.69,0,0,1-.541-.983,5.249,5.249,0,0,1-.289-1.022,7.537,7.537,0,0,1-.078-2.181q.116-1.175.27-2.217a22.437,22.437,0,0,1,.6-2.818q.405-1.465.945-2.952t1.159-2.893q.616-1.408,1.272-2.642.619-1.2,1.351-2.451a24.81,24.81,0,0,0,1.293-2.527A13.82,13.82,0,0,0,126.6,62.7a7.23,7.23,0,0,0,.1-2.623,3.371,3.371,0,0,0-.27-.83,3.989,3.989,0,0,0-.5-.79l-.463-.27a2.483,2.483,0,0,1-.348-.021,2.874,2.874,0,0,0-.348-.019,3.028,3.028,0,0,0-1.638.6,5.043,5.043,0,0,0-1.159,1.274,7.6,7.6,0,0,0-.792,1.678c-.205.618-.386,1.222-.538,1.814q-.427.811-.926.733a1.492,1.492,0,0,1-.926-.618,3.691,3.691,0,0,1-.637-1.33,2.482,2.482,0,0,1-.019-1.408c.1-.31.186-.566.249-.773s.136-.4.214-.578a5.41,5.41,0,0,1,.27-.541,8.036,8.036,0,0,1,.463-.694,11.237,11.237,0,0,1,.964-1.177,6.08,6.08,0,0,1,1.157-1.022,4.845,4.845,0,0,1,2.644-1,3.452,3.452,0,0,1,2.064.637,5.1,5.1,0,0,1,1.486,1.716,9.852,9.852,0,0,1,.907,2.24,4.823,4.823,0,0,1,.04,1.62,12.638,12.638,0,0,1-.386,1.871c-.18.631-.388,1.242-.618,1.833s-.425,1.079-.578,1.467q-.619,1.389-1.274,2.875t-1.293,3.03q-.635,1.543-1.215,3.048T122.218,78.37Z" transform="translate(-118.036 -55.103)" fill="#fbaf00"/>
      <path id="Path_20" data-name="Path 20" d="M122.164,75.382a7.062,7.062,0,0,1,.386-1.892q.346-1.04.752-2.141t.752-2.219a9.789,9.789,0,0,0,.425-2.083,2.514,2.514,0,0,1-.966-1.429,1.861,1.861,0,0,1,.348-1.659,2.054,2.054,0,0,0,.423-.193.745.745,0,0,1,.385-.115,1.713,1.713,0,0,1,1.41.425,2.87,2.87,0,0,1,.752,1.272,6.07,6.07,0,0,1,.251,1.622,7.154,7.154,0,0,1-.1,1.465,14.319,14.319,0,0,1-.637,2.085q-.405,1.04-.87,2.083t-.849,2.085a10.2,10.2,0,0,0-.538,2.083,1.748,1.748,0,0,0-.04.425,2.155,2.155,0,0,0,.792-.327,9.584,9.584,0,0,0,1.408-1.178,17.1,17.1,0,0,0,1.89-2.2,7.922,7.922,0,0,1-.233-1.138,4.615,4.615,0,0,1,0-1.177,12.967,12.967,0,0,1,.58-2.374,10.475,10.475,0,0,1,1.138-2.353,7.411,7.411,0,0,1,1.718-1.871,4.9,4.9,0,0,1,2.313-.966,1.083,1.083,0,0,1,.811.522,2.584,2.584,0,0,1,.348.985l-.308.694h0a32.893,32.893,0,0,1-1.911,3.878,42.2,42.2,0,0,1-2.449,3.763,5.361,5.361,0,0,0,.983,1.871,4.574,4.574,0,0,0,1.718,1.293h1.041a1.826,1.826,0,0,1,1.1.656,3.618,3.618,0,0,1,.752,1.253,1.946,1.946,0,0,1,.057,1.236q-.173.559-.983.637a7.21,7.21,0,0,1-2.2-.541,5.831,5.831,0,0,1-1.678-1.1,7.372,7.372,0,0,1-1.253-1.561,11.091,11.091,0,0,1-.926-1.93q-1.006,1.235-2.083,2.336a27.907,27.907,0,0,1-2.277,2.064,3.434,3.434,0,0,1-.618-.078,2.127,2.127,0,0,1-.926-.7,3.275,3.275,0,0,1-.522-1.06,4.96,4.96,0,0,1-.193-1.234Q122.124,75.959,122.164,75.382Zm8.6-6.985a3.674,3.674,0,0,0-.308.616c-.078.207-.155.413-.233.618l1.544-2.7A6.017,6.017,0,0,0,130.767,68.4Z" transform="translate(-113.544 -45.785)" fill="#fbaf00"/>
      <path id="Path_21" data-name="Path 21" d="M125.115,64.352a3.584,3.584,0,0,0,.578-.926,2.915,2.915,0,0,1-.423-.538,1.81,1.81,0,0,1-.251-.6.931.931,0,0,1,.057-.559.708.708,0,0,1,.425-.386,1.362,1.362,0,0,1,.907.153,2.185,2.185,0,0,1,.694.639,2.492,2.492,0,0,1,.4.905,2.4,2.4,0,0,1,.04.966A5.923,5.923,0,0,0,129.3,63.2a9.712,9.712,0,0,0,1.485-1.253A15.434,15.434,0,0,0,132.1,60.4q.619-.83,1.159-1.641a.914.914,0,0,1,.867.155,3.071,3.071,0,0,1,.792.83,4.186,4.186,0,0,1,.52,1.079,1.515,1.515,0,0,1,.059.907,14.343,14.343,0,0,1-2.026,1.563,17.642,17.642,0,0,1-2.219,1.2q-1.157.522-2.374.964t-2.412.907a.657.657,0,0,1-.442-.078,1.81,1.81,0,0,1-.406-.308,2.737,2.737,0,0,1-.346-.425,2.354,2.354,0,0,1-.233-.423.165.165,0,0,0-.038-.117,1.184,1.184,0,0,1-.021-.346A1.028,1.028,0,0,1,125.115,64.352Z" transform="translate(-110.438 -51.156)" fill="#fbaf00"/>
      <path id="Path_22" data-name="Path 22" d="M133.838,78.573a1.8,1.8,0,0,1-.635,1.659,1.752,1.752,0,0,1-1.467.27,2.34,2.34,0,0,1-1.351-.966,2.484,2.484,0,0,1-.289-2.045,18.708,18.708,0,0,1,1.33-4.148,4.2,4.2,0,0,1,1.485-1.833,1.693,1.693,0,0,1,1.563-.075,5.32,5.32,0,0,1,1.563,1.1,14.086,14.086,0,0,1,1.485,1.716q.713.965,1.312,1.756a9.19,9.19,0,0,0,1.062,1.215c.308.283.553.31.731.078q.349-1.119.735-2.353a8.484,8.484,0,0,0,.4-2.374,4.008,4.008,0,0,0-.5-2.064,3.42,3.42,0,0,0-1.988-1.429,4.976,4.976,0,0,0-1.582-.289,16.715,16.715,0,0,0-1.756.059c-.6.052-1.2.109-1.793.174a10.649,10.649,0,0,1-1.7.057,2.653,2.653,0,0,1-1.641-.616,1.106,1.106,0,0,1-.174-1.429,3.875,3.875,0,0,1,.752-1.079,3.331,3.331,0,0,1,.907-.618,7.541,7.541,0,0,1,1.119-.4c.411-.117.861-.264,1.351-.444a28.3,28.3,0,0,1,2.8-.792q1.292-.289,2.642-.463t2.856-.289q1.505-.116,3.357-.346a1.6,1.6,0,0,1,1.041.656,2.9,2.9,0,0,1,.6,1.253,2.109,2.109,0,0,1-.1,1.236,1.1,1.1,0,0,1-1,.635,6.771,6.771,0,0,1-.714-.057c-.323-.04-.662-.078-1.022-.117s-.7-.075-1.022-.115a6.776,6.776,0,0,0-.714-.057q-1.389-.038-2.585-.1a21.168,21.168,0,0,0-2.391.021,15.828,15.828,0,0,0-2.47.367,19.032,19.032,0,0,0-2.741.867,23.967,23.967,0,0,1,5.634-.348,7.336,7.336,0,0,1,3.512,1.062,4.152,4.152,0,0,1,1.7,2.391,9.74,9.74,0,0,1,.191,3.648,6.276,6.276,0,0,1-.289,1.312,14,14,0,0,1-.635,1.659,15.109,15.109,0,0,1-.83,1.582,3.812,3.812,0,0,1-.907,1.081,1.2,1.2,0,0,1-1.293.23,5.093,5.093,0,0,1-1.467-.907,15.046,15.046,0,0,1-1.523-1.5q-.773-.867-1.467-1.563a6.516,6.516,0,0,0-1.293-1.041.884.884,0,0,0-1.022-.04,2.446,2.446,0,0,0-.714.83,2.793,2.793,0,0,0-.308.928,1.659,1.659,0,0,0,.038.731c.065.195.174.279.329.251a.635.635,0,0,1,.482.1.95.95,0,0,1,.27.329,1.083,1.083,0,0,1,.115.385Q133.838,78.494,133.838,78.573Z" transform="translate(-104.924 -46.893)" fill="#fbaf00"/>
      <path id="Path_23" data-name="Path 23" d="M132.426,62.744A2.184,2.184,0,0,1,133,61.354a1.307,1.307,0,0,1,1.911.021,1.439,1.439,0,0,1,.4,1.06l.038.348c-.333.488-.469.83-.4,1.022s.249.277.559.249a3.862,3.862,0,0,0,1.2-.367,8.464,8.464,0,0,0,1.467-.849,8.885,8.885,0,0,0,1.349-1.175,4.1,4.1,0,0,0,.888-1.389,2.381,2.381,0,0,1,1.022-.792,5.554,5.554,0,0,1,1.446-.444,3.74,3.74,0,0,1,1.236-.019c.333.065.461.226.386.484a17.76,17.76,0,0,1-1.871,2.351,16.049,16.049,0,0,1-2.085,1.873,10.223,10.223,0,0,1-2.16,1.253,6.054,6.054,0,0,1-2.141.5,4.51,4.51,0,0,1-1.37-.134,4.2,4.2,0,0,1-1.215-.522,2.822,2.822,0,0,1-.869-.87A2.5,2.5,0,0,1,132.426,62.744Z" transform="translate(-102.276 -50.86)" fill="#fbaf00"/>
      <path id="Path_24" data-name="Path 24" d="M139.37,72.642a1.957,1.957,0,0,1-.482-1.041,4.895,4.895,0,0,1-.1-1.563,3.08,3.08,0,0,1,.444-1.37,1.086,1.086,0,0,1,1.177-.463,3.654,3.654,0,0,1,1.389,1.081,8.115,8.115,0,0,1,.926,1.523,11.179,11.179,0,0,1,.635,1.756c.168.618.342,1.222.522,1.814.128.488.239.907.329,1.253a6.719,6.719,0,0,0,.442,1.177h.078a4.588,4.588,0,0,0,1.234-1.523,14.406,14.406,0,0,0,.773-1.8q.267-.695.538-1.485a11.435,11.435,0,0,0,.425-1.62,9.18,9.18,0,0,0,.155-1.678,5.98,5.98,0,0,0-.233-1.659.756.756,0,0,0-.289.308l-.212.425a.943.943,0,0,1-1.022.193,1.815,1.815,0,0,1-.733-.752,3.406,3.406,0,0,1-.386-1.159,2.8,2.8,0,0,1,.019-1.1,2.645,2.645,0,0,1,1.544-1.215,1.77,1.77,0,0,1,1.389.308A3.639,3.639,0,0,1,149,65.35a5.942,5.942,0,0,1,.6,1.657,8.4,8.4,0,0,1,.078,2.548,15.093,15.093,0,0,1-.559,2.642,22.972,22.972,0,0,1-.964,2.6q-.559,1.276-1.138,2.393c-.207.36-.438.811-.7,1.349a2.428,2.428,0,0,1-1.041,1.159,1.045,1.045,0,0,1-.811.117,1.656,1.656,0,0,1-.693-.425,3.441,3.441,0,0,1-.541-.693c-.155-.258-.283-.49-.386-.7a12.594,12.594,0,0,1-.5-1.312q-.273-.811-.618-1.622a10.852,10.852,0,0,0-.773-1.486,3.2,3.2,0,0,0-.886-.983c-.13-.027-.214,0-.251.078S139.628,72.744,139.37,72.642Z" transform="translate(-95.33 -45.67)" fill="#fbaf00"/>
      <path id="Path_25" data-name="Path 25" d="M152.5,69.262a2.106,2.106,0,0,1,.811.714,3.831,3.831,0,0,1,.618,1.2,1.953,1.953,0,0,1,.019,1.177q-.173.541-.985.616l-.23-.038c-.207-.025-.4.2-.578.677s-.407,1.066-.677,1.775a18.807,18.807,0,0,1-1.022,2.2,5.533,5.533,0,0,1-1.62,1.869.963.963,0,0,1-.541-.057,3.255,3.255,0,0,1-.463-.289,4.8,4.8,0,0,1-.867-1.389,12.959,12.959,0,0,1-.618-1.777,18.839,18.839,0,0,1-.4-1.85,14.413,14.413,0,0,1-.193-1.7,13.389,13.389,0,0,1,.153-2.875,9.988,9.988,0,0,1,.888-2.757,4.729,4.729,0,0,1,2.275-2.1,10.38,10.38,0,0,1,3.415-.945,13.633,13.633,0,0,1,3.627.1,7.516,7.516,0,0,1,2.875.983,6.343,6.343,0,0,1,2.259,2.393,6.493,6.493,0,0,1,.712,3.011,10.076,10.076,0,0,1-.635,3.394,19.551,19.551,0,0,1-1.718,3.551c-.283.461-.593.939-.926,1.427a14.523,14.523,0,0,1-1.041,1.351,1.019,1.019,0,0,1-1.14.134,2.229,2.229,0,0,1-.905-.886,2.94,2.94,0,0,1-.385-1.351,1.728,1.728,0,0,1,.385-1.255,8.017,8.017,0,0,0,.752-.809q.635-.735,1.349-1.737a16.617,16.617,0,0,0,1.274-2.1A3.941,3.941,0,0,0,159.487,70a4.347,4.347,0,0,0-1-2.6,5.3,5.3,0,0,0-2.181-1.5,7.49,7.49,0,0,0-2.835-.442,8.072,8.072,0,0,0-2.933.616,7.2,7.2,0,0,0-1.138.578,3.282,3.282,0,0,0-.83.888,4.147,4.147,0,0,0-.637,1.756,13.947,13.947,0,0,0-.155,2.372,18.028,18.028,0,0,0,.214,2.508,17.25,17.25,0,0,0,.463,2.162,5.532,5.532,0,0,0,1.06-2.238q.327-1.351.618-2.567a5.66,5.66,0,0,1,.79-1.93A1.235,1.235,0,0,1,152.5,69.262Z" transform="translate(-87.703 -45.764)" fill="#fbaf00"/>
      <path id="Path_26" data-name="Path 26" d="M161.686,66.031a8.431,8.431,0,0,1,.522,2.47,10.843,10.843,0,0,1-.1,2.181,11.649,11.649,0,0,1-.4,1.756c-.17.513-.3.924-.406,1.234l.811.5c.591.362,1.119.689,1.582.985a7,7,0,0,1,1.389,1.215c.178-.591.36-1.247.541-1.967s.339-1.454.482-2.2.27-1.492.386-2.238.212-1.441.289-2.083q.116-.889.308-1.949a4.6,4.6,0,0,1,.733-1.833c.335-.411.668-.559,1-.444a1.715,1.715,0,0,1,.87.752,3.7,3.7,0,0,1,.5,1.351,2.078,2.078,0,0,1-.136,1.312,3.151,3.151,0,0,0-.79,1.678c-.115.681-.224,1.28-.329,1.793-.128.593-.27,1.268-.423,2.026s-.335,1.525-.54,2.3-.438,1.511-.694,2.217a13.122,13.122,0,0,1-.811,1.833.431.431,0,0,0-.193.157.272.272,0,0,0-.115.017.162.162,0,0,1-.08.021,1.4,1.4,0,0,1-.461-.059,1.32,1.32,0,0,1-.348-.212q-.349-.349-.656-.7c-.205-.23-.413-.45-.618-.654a15.788,15.788,0,0,0-1.544-1.276,18.015,18.015,0,0,0-1.735-1.117,12.406,12.406,0,0,1-.83,1.949,11.155,11.155,0,0,1-1.215,1.831,4.37,4.37,0,0,1-.541.522,1.394,1.394,0,0,1-1.041.367,2.159,2.159,0,0,1-1.93-1.351,4.764,4.764,0,0,1-.444-1.775,3.465,3.465,0,0,1,.406-1.852,3.073,3.073,0,0,1,.48-.733,5.094,5.094,0,0,1,.754-.712,3.471,3.471,0,0,1,.867-.5,1.874,1.874,0,0,1,.867-.134,1.755,1.755,0,0,1,.425.153c.155-.333.367-.836.637-1.5a14.7,14.7,0,0,0,.637-1.93,3.807,3.807,0,0,0,.134-1.5c-.063-.386-.354-.488-.867-.308a1.418,1.418,0,0,1-1.041-.425,2.2,2.2,0,0,1-.58-1,2.35,2.35,0,0,1-.019-1.157,1.507,1.507,0,0,1,.637-.926,1.923,1.923,0,0,1,1.293-.444,1.9,1.9,0,0,1,1.06.444,3.687,3.687,0,0,1,.792.926A5.071,5.071,0,0,1,161.686,66.031Zm-3.664,8.027a.866.866,0,0,0-.773-.019,1.246,1.246,0,0,0-.5.6.868.868,0,0,0-.1.465.835.835,0,0,0,.134.4.476.476,0,0,0,.251.212c.09.025.161-.013.212-.115.155-.283.283-.534.388-.752S157.866,74.365,158.021,74.057Z" transform="translate(-77.865 -45.774)" fill="#fbaf00"/>
    </g>
    <g id="Group_15" data-name="Group 15" transform="translate(22.62 24.667)">
      <g id="Group_14" data-name="Group 14">
        <path id="Path_27" data-name="Path 27" d="M57.709,50.88a.655.655,0,0,1-.019-.092l.027.207a.881.881,0,0,1-.008-.13l-.419.733a1.4,1.4,0,0,0,.333-.241,1.329,1.329,0,0,0,.316-.555c.015-.048.029-.094.048-.14l-.126.3a1.255,1.255,0,0,1,.159-.27l-.214.274a1.323,1.323,0,0,1,.224-.222l-.3.23a1.12,1.12,0,0,1,.226-.132L57.594,51a.935.935,0,0,1,.249-.067l-.434.057a.931.931,0,0,1,.216,0l-.453-.061A.863.863,0,0,1,57.4,51l-.425-.18a.958.958,0,0,1,.2.124l-.377-.291a2.208,2.208,0,0,1,.321.335l-.308-.4a1.442,1.442,0,0,1,.172.289l-.2-.48a1.3,1.3,0,0,1,.082.293l-.073-.545a1.119,1.119,0,0,1,0,.3l.073-.557a1.262,1.262,0,0,1-.057.212l.214-.509a.7.7,0,0,1-.069.122c.427-.331.857-.66,1.286-.991-.084.027-.17.038-.251.063a1.694,1.694,0,0,1-.251.061l.589-.08a1.4,1.4,0,0,1-.362,0l.589.08a1.715,1.715,0,0,1-.406-.109l.528.222a1.915,1.915,0,0,1-.392-.224l.448.346c-.067-.052-.128-.109-.189-.166-.195-.176-.417-.308-.622-.463l.434.335a1.429,1.429,0,0,1-.247-.243l.318.413-.052-.071a1.758,1.758,0,0,0-.526-.576c.14.109-.155-.132-.218-.17a2.316,2.316,0,0,0-.549-.249,1.559,1.559,0,0,0-.744-.036l-.241.031-.434.182-.019.01c-.038.021-.356.27-.383.3a1.96,1.96,0,0,0-.163.212c-.061.08-.13.161-.189.247a1.529,1.529,0,0,0-.224.52,3.218,3.218,0,0,0-.071.562v.036a5.749,5.749,0,0,0,.094.708,3.833,3.833,0,0,0,.325.851,1.432,1.432,0,0,0,.207.293,2.371,2.371,0,0,0,.226.281c.113.107.243.2.365.293a3.036,3.036,0,0,0,.543.365,3.927,3.927,0,0,0,1.812.457,5.7,5.7,0,0,0,.779-.1,1.354,1.354,0,0,0,.2-.052,2.8,2.8,0,0,0,1.1-.654A1.83,1.83,0,0,0,60.5,52.1l.168-.218.218-.515a4.758,4.758,0,0,0,.084-.624l-.075.568a4.871,4.871,0,0,0,.094-.758.95.95,0,0,0-.006-.109,6,6,0,0,0-.088-.639,3.958,3.958,0,0,0-.264-.677,1.457,1.457,0,0,0-.1-.195,3.083,3.083,0,0,0-.6-.719,4.066,4.066,0,0,0-.562-.415l-.052-.025a3.519,3.519,0,0,0-.488-.2,1.2,1.2,0,0,0-.119-.023,2.947,2.947,0,0,0-1.345.015,3.164,3.164,0,0,0-.578.237,2.854,2.854,0,0,0-.488.358,1.017,1.017,0,0,0-.126.126,2.942,2.942,0,0,0-.348.467,3.642,3.642,0,0,0-.216.5,1.108,1.108,0,0,0-.057.2,2.728,2.728,0,0,0-.034.947,1.975,1.975,0,0,0,.069.369,1.462,1.462,0,0,0,.331.591,1.183,1.183,0,0,0,.932.346l-.608-.251a1.628,1.628,0,0,0,.383.26.934.934,0,0,0,.373.1.732.732,0,0,0,.446-.157.742.742,0,0,0,.264-.775Z" transform="translate(-54.612 -47.48)" fill="#1a1818"/>
      </g>
    </g>
    <g id="Group_17" data-name="Group 17" transform="translate(44.162 25.337)">
      <g id="Group_16" data-name="Group 16">
        <path id="Path_28" data-name="Path 28" d="M67.9,51.462l-.054-.065.161.207a1.273,1.273,0,0,1-.145-.247l.117.277a1.449,1.449,0,0,1-.08-.3l.048.348a4.571,4.571,0,0,0-.069-.631,2.005,2.005,0,0,1-.071-.314l.052.386a1.837,1.837,0,0,1,0-.467l-.054.4c.025-.182.052-.362.075-.543l-.054.4a1.743,1.743,0,0,1,.113-.421l-.151.358a1.434,1.434,0,0,1,.184-.321l-.235.3a1.311,1.311,0,0,1,.222-.222l-.3.235a1.269,1.269,0,0,1,.262-.155l-.358.151a1.335,1.335,0,0,1,.323-.086l-.4.052a1.457,1.457,0,0,1,.331,0l-.4-.054a1.692,1.692,0,0,1,.417.117l-.356-.151a1.824,1.824,0,0,1,.379.224l-.3-.235a2.014,2.014,0,0,1,.314.312l-.235-.3a1.757,1.757,0,0,1,.224.377l-.151-.358a.807.807,0,0,1,.05.157l-.054-.4a1.532,1.532,0,0,1-.01.26l.054-.415a1.178,1.178,0,0,1-.078.283l.163-.388a1.181,1.181,0,0,1-.14.245l.264-.342c-.138.174-.277.348-.411.528l.268-.348a1.416,1.416,0,0,1-.216.218l.348-.27a1.541,1.541,0,0,1-.316.184l.411-.174a1.761,1.761,0,0,1-.438.119l.457-.063a1.837,1.837,0,0,1-.48,0l.457.063a1.684,1.684,0,0,1-.375-.1l.411.172A1.265,1.265,0,0,1,67.8,50.3l.348.268a4.006,4.006,0,0,0-.465-.354,1.366,1.366,0,0,1-.138-.086l.335.258a1.1,1.1,0,0,1-.174-.168l.245.316c-.025-.036-.05-.071-.073-.107a1.542,1.542,0,0,0-.727-.624,1.456,1.456,0,0,0-.991-.075,1.8,1.8,0,0,0-.673.392,1.117,1.117,0,0,0-.314.488,1.156,1.156,0,0,0-.132.587,1.313,1.313,0,0,0,0,.2,3.086,3.086,0,0,0,.09.6,3.483,3.483,0,0,0,.23.555,2.106,2.106,0,0,0,.729.727,3.17,3.17,0,0,0,1.6.492,3.572,3.572,0,0,0,.872-.075,1.838,1.838,0,0,0,.411-.115,3.489,3.489,0,0,0,1.085-.633,2.58,2.58,0,0,0,.534-.643,2.7,2.7,0,0,0,.18-.434l.017-.063A1.02,1.02,0,0,0,70.8,51.7a2.692,2.692,0,0,0-.042-1.379A5.156,5.156,0,0,0,70.5,49.7l.151.358a2.888,2.888,0,0,0-.4-.83,3.062,3.062,0,0,0-.9-.9,3.129,3.129,0,0,0-.838-.4,1.566,1.566,0,0,0-.26-.063,3.17,3.17,0,0,0-.662-.067,2.916,2.916,0,0,0-1.24.329,1.289,1.289,0,0,0-.2.124,3.107,3.107,0,0,0-.471.39,2.729,2.729,0,0,0-.467.677,3.25,3.25,0,0,0-.3.991,2.97,2.97,0,0,0,.067,1.1,1.69,1.69,0,0,0,.086.264c.059.151.119.3.191.448a1.6,1.6,0,0,0,.557.576l-.285-.222a2.963,2.963,0,0,0,.941.553,1.905,1.905,0,0,0,.735.1.987.987,0,0,0,.694-1.676Z" transform="translate(-64.893 -47.8)" fill="#1a1818"/>
      </g>
    </g>
    <g id="Group_24" data-name="Group 24" transform="translate(116.866 48.111)">
      <g id="Group_19" data-name="Group 19" transform="translate(0 13.664)">
        <g id="Group_18" data-name="Group 18">
          <path id="Path_29" data-name="Path 29" d="M100.154,70.917a21.327,21.327,0,0,0,15.9,4.754A24.791,24.791,0,0,0,124.4,73.4c2.451-1.159,5.282-2.9,6.5-5.42.758-1.567-.838-3.52-2.508-2.51C126.354,66.7,124.7,68.4,122.551,69.5a18.979,18.979,0,0,1-6.692,1.949,20.752,20.752,0,0,1-13.518-3.363c-1.685-1.123-3.763,1.506-2.187,2.835Z" transform="translate(-99.594 -65.191)" fill="#fff"/>
        </g>
      </g>
      <g id="Group_21" data-name="Group 21" transform="translate(3.636 0.298)">
        <g id="Group_20" data-name="Group 20">
          <path id="Path_30" data-name="Path 30" d="M106.967,61.854v-.006a2.4,2.4,0,0,0-1.672-1.672l-.059-.021.576.243a.635.635,0,0,1-.145-.088l.5.383a4.359,4.359,0,0,0-.618-.482,1.717,1.717,0,0,1-.153-.1l.5.386a1.253,1.253,0,0,1-.212-.21l.381.494a1.79,1.79,0,0,1-.172-.293,2.232,2.232,0,0,0-.524-.75,3.834,3.834,0,0,0-1.425-.855,2.077,2.077,0,0,0-1.1,0,2.071,2.071,0,0,0-1.441,1.441,2.077,2.077,0,0,0,0,1.1.909.909,0,0,1,.019.1l-.075-.564a3.121,3.121,0,0,1-.019.5l.086.635.01.038.019.071.038.134a5.955,5.955,0,0,0,.327.823,1.2,1.2,0,0,0,.136.235,4.146,4.146,0,0,0,.564.687,2.69,2.69,0,0,0,1.165.685,6.114,6.114,0,0,0,.754.109,2.636,2.636,0,0,0,.867-.094,2.4,2.4,0,0,0,1.672-1.672,2.781,2.781,0,0,0,.044-.323,1.791,1.791,0,0,0-.044-.945Z" transform="translate(-101.329 -58.812)" fill="#fff"/>
        </g>
      </g>
      <g id="Group_23" data-name="Group 23" transform="translate(20.14)">
        <g id="Group_22" data-name="Group 22">
          <path id="Path_31" data-name="Path 31" d="M113.086,62.622l.006-.048-.057.425a1.208,1.208,0,0,1,.071-.268l-1.24,1.238.027,0a1.981,1.981,0,0,0,1.374-1.374,1.6,1.6,0,0,1,.069-.2l-.205.486.031-.069-1.234.949.054-.013.524-.22a1.667,1.667,0,0,0,.616-.566,1.09,1.09,0,0,0,.283-.484,1.672,1.672,0,0,0,.189-.844,1.835,1.835,0,0,1,.015-.214l-.078.572a1.832,1.832,0,0,1,.111-.417l-.207.494a1.6,1.6,0,0,1,.2-.348l-.312.4c.132-.168.27-.327.392-.5l.2-.469.069-.52-.069-.522a1.466,1.466,0,0,0-.352-.666,1.934,1.934,0,0,0-1.278-.738,1.481,1.481,0,0,0-.782.036,2.522,2.522,0,0,0-.723.346,4.344,4.344,0,0,0-.631.515,4.748,4.748,0,0,0-.509.662,5.386,5.386,0,0,0-.356.786l-.078.582a1.672,1.672,0,0,0,.189.844,1.09,1.09,0,0,0,.283.484,1.678,1.678,0,0,0,.614.566l.044.025q-.475-.619-.949-1.234a1.659,1.659,0,0,0,.057.2,4.2,4.2,0,0,0,.228.545,1.941,1.941,0,0,0,1.259.922l-.775-.453a1.213,1.213,0,0,0,.122.111,4.675,4.675,0,0,0,.444.337,1.568,1.568,0,0,0,1.586,0,1.6,1.6,0,0,0,.564-.564,1.551,1.551,0,0,0,.214-.794Z" transform="translate(-109.206 -58.67)" fill="#fff"/>
        </g>
      </g>
    </g>
    <g id="Group_26" data-name="Group 26" transform="translate(18.597 39.681)">
      <g id="Group_25" data-name="Group 25">
        <path id="Path_32" data-name="Path 32" d="M53.059,56.908c4.66,5.142,10.641,10.16,17.92,10.463,5.724.239,12.8-2.288,14.044-8.557.377-1.892-2.368-3.369-3.321-1.4a11.613,11.613,0,0,1-11.3,6.717c-6.112-.45-11.247-5.079-15.471-9.1a1.327,1.327,0,0,0-1.875,1.875Z" transform="translate(-52.691 -54.646)" fill="#1a1818"/>
      </g>
    </g>
    <g id="Group_28" data-name="Group 28" transform="translate(52.036 34.924)">
      <g id="Group_27" data-name="Group 27">
        <path id="Path_33" data-name="Path 33" d="M69.059,56.141a7.817,7.817,0,0,1,.425-.738,5.192,5.192,0,0,0,.4-.834l.339-.807a2.657,2.657,0,0,0,.122-.419,1.049,1.049,0,0,0,.025-.585.512.512,0,0,0-.746-.3.93.93,0,0,0-.272.27c-.04.071-.071.172-.1.251a4.009,4.009,0,0,0-.157.409c-.078.279-.13.566-.195.849a5.1,5.1,0,0,0-.161.909,7.33,7.33,0,0,1-.084.828c-.036.228.283.413.4.17Z" transform="translate(-68.652 -52.376)" fill="#1a1818"/>
      </g>
    </g>
    <g id="Group_30" data-name="Group 30" transform="translate(54.077 34.66)">
      <g id="Group_29" data-name="Group 29">
        <path id="Path_34" data-name="Path 34" d="M70.016,57.086c.482.18.886-.587,1.029-.934.132-.325.266-.65.388-.976s.241-.658.362-.985a2.412,2.412,0,0,0,.26-1.358.8.8,0,0,0-.555-.555.822.822,0,0,0-.773.205,2.577,2.577,0,0,0-.53,1.265c-.1.36-.2.721-.293,1.081a7.078,7.078,0,0,0-.266,1.2c-.025.381-.042.895.379,1.052Z" transform="translate(-69.626 -52.25)" fill="#1a1818"/>
      </g>
    </g>
    <g id="Group_32" data-name="Group 32" transform="translate(56.381 35.354)">
      <g id="Group_31" data-name="Group 31">
        <path id="Path_35" data-name="Path 35" d="M71.913,56.79c.218-.511.434-1.018.649-1.529a15.767,15.767,0,0,0,.608-1.71.779.779,0,0,0-.536-.947.793.793,0,0,0-.947.538,15.2,15.2,0,0,0-.524,1.563L70.746,56.3a.642.642,0,0,0,.371.752.629.629,0,0,0,.8-.26Z" transform="translate(-70.725 -52.581)" fill="#1a1818"/>
      </g>
    </g>
    <g id="Group_34" data-name="Group 34" transform="translate(12.756 31.441)">
      <g id="Group_33" data-name="Group 33">
        <path id="Path_36" data-name="Path 36" d="M50.866,54.96a2.287,2.287,0,0,0,.26-.515c.025-.073.052-.149.082-.222l.054-.136c-.023.059-.021.046,0-.006.048-.107.1-.212.14-.321l.044-.109c.069-.174-.036.071.01-.027.071-.149.138-.3.216-.448.149-.287.3-.572.471-.849a5.08,5.08,0,0,0,.492-.976.5.5,0,0,0-.182-.532.519.519,0,0,0-.564-.04,2.668,2.668,0,0,0-.907.838,5.084,5.084,0,0,0-.541.907,5.717,5.717,0,0,0-.4,1.075c-.04.172-.075.346-.1.522a1.512,1.512,0,0,0-.038.362,2.59,2.59,0,0,0,.061.36.5.5,0,0,0,.9.117Z" transform="translate(-49.904 -50.713)" fill="#1a1818"/>
      </g>
    </g>
    <g id="Group_36" data-name="Group 36" transform="translate(15.105 32.323)">
      <g id="Group_35" data-name="Group 35">
        <path id="Path_37" data-name="Path 37" d="M52.06,54.857l.658-1.37a4.056,4.056,0,0,0,.528-1.7.654.654,0,0,0-.4-.6.643.643,0,0,0-.714.136l-.13.153a1.055,1.055,0,0,0-.212.371c-.048.119-.092.241-.14.36a6.454,6.454,0,0,0-.228.733q-.189.745-.377,1.488a.564.564,0,0,0,.323.658.556.556,0,0,0,.7-.228Z" transform="translate(-51.025 -51.134)" fill="#1a1818"/>
      </g>
    </g>
    <g id="Group_38" data-name="Group 38" transform="translate(16.58 33.482)">
      <g id="Group_37" data-name="Group 37">
        <path id="Path_38" data-name="Path 38" d="M52.724,55.307c.247-.455.5-.9.744-1.362s.45-.934.675-1.4a.573.573,0,1,0-.989-.578c-.239.457-.5.911-.714,1.379s-.432.945-.647,1.418a.54.54,0,0,0,.932.545Z" transform="translate(-51.729 -51.687)" fill="#1a1818"/>
      </g>
    </g>
  </g>
  <g id="Group_40" data-name="Group 40" transform="translate(24.118 4.663)">
    <path id="Path_39" data-name="Path 39" d="M60.576,30.108l-.015.025.264,1c1.272-1.106,2.38-2.389,3.641-3.514s2.6-2.164,3.945-3.191q-.779-1.009-1.555-2.016c-3.028,2.875-5.955,5.837-9.078,8.613q1.056.817,2.114,1.63A28.8,28.8,0,0,1,64.718,26.9L62.8,24.979A25.49,25.49,0,0,1,57.6,29.9l1.869,1.869a27.189,27.189,0,0,1,5.468-7.821l-1.911-1.909A58.756,58.756,0,0,1,56.293,28.4q1.043.8,2.085,1.607a56.571,56.571,0,0,1,5.406-7.568l-2.045-1.578a29.65,29.65,0,0,1-5.829,5.76l1.752,1.752a24.616,24.616,0,0,1,4-5.85,1.281,1.281,0,0,0-1.81-1.81q-1.515,1.226-3.028,2.453,1.006.776,2.009,1.55A15.137,15.137,0,0,1,61.284,21.1c.937-1.014-.277-2.8-1.532-1.984q-.987.638-1.972,1.28l1.89,1.083a4.435,4.435,0,0,1,.972-3.061q-.968-.745-1.934-1.492a2.671,2.671,0,0,1-.79.976L59.4,19.824c.93-.978,1.953-1.854,2.925-2.791a1.084,1.084,0,0,0-1.309-1.7A16.289,16.289,0,0,0,57.672,18.1c-.93.958.31,2.741,1.479,1.917a5.338,5.338,0,0,0,1.685-1.842c.635-1.175-.993-2.6-1.936-1.492a7.039,7.039,0,0,0-1.741,4.8,1.267,1.267,0,0,0,1.89,1.085c.662-.421,1.32-.844,1.98-1.265L59.5,19.317a17.437,17.437,0,0,0-2.868,4.1,1.285,1.285,0,0,0,2.007,1.55q1.518-1.223,3.03-2.453l-1.81-1.81a26.935,26.935,0,0,0-4.4,6.367c-.507,1.027.629,2.588,1.752,1.752a34.495,34.495,0,0,0,6.784-6.656c.9-1.161-1.085-2.694-2.045-1.576a60.318,60.318,0,0,0-5.856,8.069c-.834,1.379.972,2.493,2.085,1.607a58.762,58.762,0,0,0,6.772-6.323,1.351,1.351,0,0,0-1.911-1.909,28.7,28.7,0,0,0-5.917,8.351,1.416,1.416,0,0,0,.214,1.655,1.368,1.368,0,0,0,1.655.214A27.8,27.8,0,0,0,64.718,26.9,1.358,1.358,0,0,0,62.8,24.979a31.144,31.144,0,0,0-5.23,6.319c-.838,1.339,1.012,2.623,2.112,1.63a121.508,121.508,0,0,0,8.988-8.7,1.283,1.283,0,0,0-1.812-1.814c-1.368,1.226-2.743,2.451-4.006,3.786a13.1,13.1,0,0,0-3.025,4.352.6.6,0,0,0,.735.735,1.125,1.125,0,0,0,.758-.744c.176-.459-.442-.683-.744-.434Z" transform="translate(-55.327 -15.188)" fill="#ffb900"/>
  </g>
  <g id="Group_41" data-name="Group 41" transform="translate(25.003 2.267)">
    <path id="Path_40" data-name="Path 40" d="M60.469,19.676a5.8,5.8,0,0,1,4.224-2.891l-1.326-1.726a4.113,4.113,0,0,1-2.751,1.59c.459.6.918,1.2,1.377,1.791a2.22,2.22,0,0,1,2.768-1.115q-.431-.754-.857-1.509a.359.359,0,0,1-.448.166q.377.924.752,1.848a2.077,2.077,0,0,1,2.233-.863L65.9,14.911a2.052,2.052,0,0,1-2.013.735q.443,1.075.888,2.148a4.081,4.081,0,0,1,3.558-1.106q-.33-1.213-.658-2.428-2.59,1.817-5.186,3.627L64.125,20a15.676,15.676,0,0,1,3.134-2.445L65.7,15.535a38.415,38.415,0,0,1-7.335,6.943q.924.924,1.85,1.85a17.876,17.876,0,0,1,3.224-3.947A16.059,16.059,0,0,1,65.3,18.9c.348-.235,1.842-1.393,2.233-1.207l-.48-1.833A31.474,31.474,0,0,1,60.6,22.288l1.6,2.074A38.074,38.074,0,0,1,72.3,17l-1.592-2.062a69.361,69.361,0,0,1-10.432,9.753l1.592,2.064c2.669-2.611,5.362-5.2,8.75-6.851l-1.787-1.787c-2.893,4.446-6.906,7.964-10.87,11.429l1.829,1.827a42.015,42.015,0,0,1,11.683-10l-1.852-1.425a10.436,10.436,0,0,1-2.673,3.411q-1.788,1.738-3.587,3.465-3.617,3.495-7.189,7.034c-1.276,1.257.635,3.128,1.953,1.953a86.047,86.047,0,0,1,11.186-8.936Q68.5,25.831,67.7,24.786c-3.472,4.121-7.01,8.188-10.522,12.278l1.969,1.969a88.921,88.921,0,0,1,9.33-10.065q-1.04-.8-2.076-1.6a114.732,114.732,0,0,1-9.443,11.674q.959.959,1.915,1.915C61.131,38.3,63.342,35.6,65.556,32.9l-1.8-1.8a21.13,21.13,0,0,1-4.991,4.538l1.844,1.056a17.066,17.066,0,0,1,1.165-7.88c.442-1.066-1.37-1.833-1.871-.79a16.609,16.609,0,0,0-1.743,8.67A1.238,1.238,0,0,0,60,37.751,28.07,28.07,0,0,0,65.556,32.9c1.069-1.236-.727-3.046-1.8-1.8-2.282,2.634-4.563,5.267-6.8,7.941-1.1,1.318.735,3.224,1.915,1.915A139.953,139.953,0,0,0,68.678,28.7c.911-1.272-1.014-2.562-2.076-1.6a88.867,88.867,0,0,0-9.428,9.965c-1.11,1.372.8,3.35,1.969,1.969,3.474-4.125,6.922-8.274,10.434-12.366.937-1.092-.253-2.929-1.611-2.091a85.826,85.826,0,0,0-11.8,9.282l1.953,1.953q3.922-3.866,7.815-7.758c2.25-2.261,4.886-4.412,6.112-7.434.436-1.069-.976-1.921-1.85-1.423a43.648,43.648,0,0,0-12.24,10.348,1.293,1.293,0,0,0,1.829,1.827c4.148-3.614,8.266-7.3,11.3-11.938.769-1.175-.7-2.315-1.787-1.785-3.579,1.739-6.474,4.494-9.29,7.247-1.035,1.01.373,2.981,1.592,2.064A72.306,72.306,0,0,0,72.565,16.793a1.319,1.319,0,0,0-1.592-2.062,40.378,40.378,0,0,0-10.637,7.763c-1.012,1.029.356,2.994,1.6,2.074a36.464,36.464,0,0,0,7.436-7.35,1.347,1.347,0,0,0-.482-1.835c-2.181-1.054-4.507.773-6.181,2.072a19.581,19.581,0,0,0-4.831,5.508c-.647,1.087.727,2.7,1.85,1.85a51.24,51.24,0,0,0,7.794-7.455,1.3,1.3,0,0,0-1.563-2.026A14.868,14.868,0,0,0,62.217,18.1c-1.031,1.054.352,3.044,1.634,2.12q2.571-1.854,5.139-3.706a1.315,1.315,0,0,0-.658-2.426A6.471,6.471,0,0,0,63,16.015a1.274,1.274,0,0,0,.89,2.148,4.416,4.416,0,0,0,3.75-1.513,1.243,1.243,0,0,0-.543-2.055,4.665,4.665,0,0,0-5.058,1.965,1.265,1.265,0,0,0,.75,1.848,2.911,2.911,0,0,0,3.482-1.94,1.243,1.243,0,0,0-.857-1.509,4.652,4.652,0,0,0-5.525,2.25A1.236,1.236,0,0,0,61.263,19,6.062,6.062,0,0,0,65.4,16.244a1.186,1.186,0,0,0-1.326-1.724,6.6,6.6,0,0,0-4.658,4.71.581.581,0,0,0,1.058.446Z" transform="translate(-55.749 -14.044)" fill="#fbaf00"/>
  </g>
  <g id="Group_42" data-name="Group 42" transform="translate(24.139 4.167)">
    <path id="Path_41" data-name="Path 41" d="M57.514,26.154A13.529,13.529,0,0,0,55.92,36.1c.22,1.154,1.724.876,2.072,0a9.334,9.334,0,0,0-.6-7.721,1.113,1.113,0,0,0-2.057.557,36.19,36.19,0,0,0,1.655,10.369,1.146,1.146,0,0,0,2.24-.3c.411-7.932,4.62-15.706,12.06-19.07q-.468-.8-.934-1.6c-1.207.71-2.418,1.414-3.627,2.122L68.063,21.8A12.207,12.207,0,0,1,70.9,18.305a9.529,9.529,0,0,1,.968-.714c.124-.082,1.353-.863.195-.763-.306.027-.853,1.444-.93,1.661a1.239,1.239,0,0,0,2.055,1.2L74.4,18.228l-1.919-1.479a33.007,33.007,0,0,1-5.33,8.157l1.854,1.431a16.584,16.584,0,0,1,6.684-7.2q-.852-.657-1.708-1.314c-.872,3.9-3.776,6.74-6.55,9.422l1.957,1.509a29.13,29.13,0,0,1,6.235-8.963c-.612-.078-1.226-.157-1.837-.237.283.641-.545,1.609-.867,2.091-.44.654-.9,1.3-1.381,1.919-.926,1.19-1.949,2.3-2.977,3.407L70.6,28.544c1.609-2.389,3.269-4.817,5.739-6.39l-1.7-1.3A15.473,15.473,0,0,1,69.9,29.315q.981.754,1.961,1.513c1.653-3.233,3.336-6.426,5.263-9.5q-.962-.566-1.928-1.127a28.629,28.629,0,0,0-2.615,5.169l2.374.656a31.892,31.892,0,0,1,2.158-6.177l-2.194-.593a92.942,92.942,0,0,1,.5,10.528l2.16-.293a12.015,12.015,0,0,1,.337-7.553l-2.041-.277a26.192,26.192,0,0,1-1.953,8.911h2.342a25.183,25.183,0,0,1-.216-6.252H73.62c.245,2.177.446,4.36.729,6.533.205,1.58,2.692,1.655,2.541,0L76.272,24c-.113-1.236-2.166-1.768-2.37-.321a28.528,28.528,0,0,0-.245,7.082,1.25,1.25,0,0,0,2.443.329q1.025-3.778,2.045-7.559-1.106-.151-2.213-.3A64.516,64.516,0,0,0,76.614,33.6c.2,1.324,2.451,1.025,2.351-.318-.237-3.189-.4-6.384-.4-9.581l-2.338.316a79.7,79.7,0,0,1,2.326,11.354c.207,1.563,2.646,1.661,2.529,0a47.513,47.513,0,0,0-1.333-8.226c-.249-1-1.967-1.113-2.135,0a13.77,13.77,0,0,0-.126,3.7c.13,1.152,1.848,1.222,1.848,0a11.306,11.306,0,0,1,.413-3.111H77.609c.425,2.525.717,5.087.939,7.637l2.485-.335a103.254,103.254,0,0,0-2.514-11.651,1.2,1.2,0,0,0-2.34.316,85.552,85.552,0,0,0,.394,9.581l2.351-.318a44.312,44.312,0,0,1-.738-9.73,1.132,1.132,0,0,0-2.213-.3q-1.138,3.749-2.271,7.5,1.223.163,2.445.331a28.177,28.177,0,0,1,.082-6.441L73.861,24l.488,6.849H76.89c-.241-2.181-.562-4.356-.842-6.533a1.215,1.215,0,0,0-2.428,0,27.858,27.858,0,0,0,.3,6.9c.218,1.32,1.955.972,2.342,0a25.053,25.053,0,0,0,1.689-9.556,1.045,1.045,0,0,0-2.043-.277,15.616,15.616,0,0,0-.453,8.691c.285,1.251,2.1.909,2.16-.291a77.834,77.834,0,0,0-.346-10.528c-.1-1.075-1.607-1.716-2.194-.6a24.965,24.965,0,0,0-2.5,6.709,1.232,1.232,0,0,0,2.374.656,18.159,18.159,0,0,1,2.169-4.7c.8-1.2-1.134-2.317-1.928-1.127a80.3,80.3,0,0,0-5.491,9.37,1.255,1.255,0,0,0,1.961,1.515,18.818,18.818,0,0,0,5.2-9.617,1.168,1.168,0,0,0-1.695-1.3c-2.889,1.716-4.884,4.389-6.811,7.073-.872,1.213,1.02,2.6,2.034,1.571A32.816,32.816,0,0,0,74.324,23.9c.983-1.479,2.384-3.392,1.6-5.244a1.19,1.19,0,0,0-1.957-.515A28.64,28.64,0,0,0,67.238,27.5c-.538,1.224.88,2.579,1.957,1.509,3.021-3,6.128-6.256,7.029-10.564a1.176,1.176,0,0,0-1.708-1.312,19.415,19.415,0,0,0-7.549,8.012c-.57,1.14.905,2.477,1.854,1.431a35.078,35.078,0,0,0,5.77-8.594c.549-1.161-.958-2.617-1.919-1.479l-1.221,1.446,2.053,1.2c.2-.549.683-.918.861-1.49a2.409,2.409,0,0,0-.017-1.555,1.83,1.83,0,0,0-2.644-.907,13.069,13.069,0,0,0-5.324,5.619c-.432.83.465,1.871,1.333,1.335q1.788-1.106,3.579-2.208a.926.926,0,0,0-.934-1.6C63.012,22.632,57.3,30.3,56.952,39.008l2.24-.3a31.467,31.467,0,0,1-1.647-9.764l-2.057.557a8.13,8.13,0,0,1,.432,6.036h2.072a16.627,16.627,0,0,1,.092-9.139.313.313,0,0,0-.57-.241Z" transform="translate(-55.337 -14.951)" fill="#fbaf00"/>
  </g>
  <g id="Group_43" data-name="Group 43" transform="translate(47.078 15.663)">
    <path id="Path_42" data-name="Path 42" d="M71.759,29.938l-1.77.484.568,1.345a100.5,100.5,0,0,1,11.155-7.212L80.568,22.6c-4.172,2.7-8.245,5.552-12.355,8.341q.647.839,1.3,1.68a39.556,39.556,0,0,1,16.68-10.243q-.377-.893-.754-1.789a51.591,51.591,0,0,1-13.164,6.719q.465.8.932,1.6a24.881,24.881,0,0,1,11.264-5.864c.3-.067.6-.132.9-.189.455-.084.809-.344.451.168a6.37,6.37,0,0,1-1.959,1.335c-5.638,3.417-11.3,6.8-16.91,10.264a1,1,0,0,0,1.008,1.726c6.3-3.692,12.8-7.564,19.98-9.271l-.7-1.653Q76.985,31.173,66.786,37.009q.522.893,1.046,1.787c6.032-3.461,12.156-7,18.909-8.85l-.792-1.879Q76.683,34.292,67,39.85a1.093,1.093,0,0,0,1.1,1.886c5.632-3.25,11.32-6.395,17.7-7.9l-1.219-1.219c-.172,1.188-2.787,2.158-3.723,2.707l-4.192,2.445q-4.192,2.448-8.389,4.886l1.087,1.861a54.074,54.074,0,0,1,15.381-7.082q-.4-.946-.8-1.894c-5.2,3.342-10.415,6.654-15.584,10.04-1.094.717-.078,2.479,1.029,1.762,4.471-2.9,9-5.766,14.1-7.417q-.368-.867-.735-1.739c-3.989,2.973-8.1,5.783-12.276,8.483q.5.861,1.01,1.724a43.463,43.463,0,0,1,10.03-5.152c-.306-.524-.61-1.045-.913-1.569a66.561,66.561,0,0,1-7.568,5.611c-1,.675-.107,2.257.953,1.632,2.047-1.209,4.111-2.4,6.137-3.644l-.8-.8a13.729,13.729,0,0,1-3.746,4.016.51.51,0,1,0,.62.8,28.637,28.637,0,0,0,4.044-4.113.587.587,0,0,0-.708-.918c-2.181.972-4.337,2.009-6.5,3.021l.953,1.632A44.878,44.878,0,0,0,81.932,43a.945.945,0,0,0-.911-1.569,42.153,42.153,0,0,0-10.541,5.238c-1.046.725-.075,2.439,1.01,1.724,4.159-2.736,8.219-5.609,12.228-8.565.8-.593.377-2.091-.733-1.739-5.267,1.676-9.967,4.582-14.624,7.49q.515.88,1.029,1.762c5.225-3.3,10.4-6.671,15.6-10.013a1.04,1.04,0,0,0-.8-1.892,49.7,49.7,0,0,0-15.917,7.218c-1.127.775-.117,2.581,1.087,1.861q4.862-2.9,9.732-5.793l4.637-2.753c1.152-.685,2.55-1.358,2.759-2.824a1.008,1.008,0,0,0-1.219-1.219C78.655,33.112,72.746,36.535,67,39.85q.55.943,1.1,1.886,9.651-5.607,18.888-11.894a1.034,1.034,0,0,0-.794-1.879c-6.948,1.946-13.2,5.45-19.408,9.047A1.036,1.036,0,0,0,67.831,38.8Q78.007,32.922,88.15,26.988a.909.909,0,0,0-.7-1.653C80.046,27.17,73.5,30.809,66.947,34.622q.5.864,1.008,1.726c3.75-2.3,7.467-4.647,11.2-6.977l5.594-3.495c1.131-.706,2.841-1.4,3.038-2.9.459-3.514-5.41-1.3-6.883-.779a27.335,27.335,0,0,0-9.053,5.357.966.966,0,0,0,.932,1.6,53.379,53.379,0,0,0,13.644-6.879c.861-.6.373-2.135-.754-1.789A42.536,42.536,0,0,0,68,31.107c-.838.838.258,2.363,1.295,1.68,4.146-2.734,8.337-5.408,12.42-8.232A1.134,1.134,0,0,0,80.568,22.6a52.214,52.214,0,0,0-10.9,8.012c-.629.624.163,1.488.893,1.157.553-.249,1.1-.5,1.657-.752.618-.281.176-1.249-.455-1.077Z" transform="translate(-66.285 -20.438)" fill="#fbaf00"/>
  </g>
  <g id="Group_44" data-name="Group 44" transform="translate(5.733 17.766)">
    <path id="Path_43" data-name="Path 43" d="M47.945,27.631l-.872.168.708,1.215a27.587,27.587,0,0,1,8.553-5.567L55.32,21.706a51.593,51.593,0,0,1-7.446,7.911c-.928.782.312,2.42,1.307,1.7a64.176,64.176,0,0,1,8.835-5.875l-1.081-1.4a63.636,63.636,0,0,1-8.976,8.295c-.968.738-.034,2.407.974,1.664,3.306-2.437,6.663-4.9,10.539-6.351q-.5-.867-1.008-1.731a62.588,62.588,0,0,1-8.09,7.572c-1.018.8.277,2.242,1.32,1.71,3.245-1.657,6.426-3.434,9.682-5.07l-1.213-1.576q-3.8,3.366-7.608,6.73c-1.077.949.465,2.382,1.544,1.544a33.88,33.88,0,0,1,7.4-4.368l-1.232-1.6c-2.3,2.395-4.735,4.647-7.126,6.952-.857.828.277,2.384,1.3,1.687a36.589,36.589,0,0,1,9.6-5.194q-.462-.792-.922-1.586C60.146,35.354,57,37.8,54.011,40.425c-.924.811.283,2.384,1.318,1.708,3.315-2.173,6.659-4.329,10.486-5.481q-.468-.8-.934-1.607c-2.952,2.642-6.013,5.16-8.938,7.832a1.047,1.047,0,0,0,1.263,1.636c3.541-2.248,7.094-4.477,11.174-5.6-.3-.5-.589-1.01-.884-1.517-3.189,2.579-6.4,5.127-9.6,7.7-.844.679.243,2.037,1.146,1.485,3.784-2.311,7.6-4.616,11.886-5.871q-.456-.786-.911-1.567-4.676,4.2-9.722,7.947c-.972.721-.109,2.332.974,1.666,3.786-2.328,7.377-4.712,11.779-5.707L72.266,41.7c-2.6,2.085-5.322,4-7.976,6.009-.911.689-.126,2.187.922,1.578a70.224,70.224,0,0,1,9.881-4.775l-.786-1.349A17.136,17.136,0,0,1,69.255,47.1c-.974.526-.109,2,.865,1.483,2.789-1.479,5.686-2.743,8.59-3.975.658-.279.186-1.33-.48-1.14A52.608,52.608,0,0,0,69.255,47.1l.865,1.483A18.3,18.3,0,0,0,75.449,44.3c.49-.551.029-1.649-.786-1.349A73.126,73.126,0,0,0,64.29,47.705l.922,1.578c2.81-2.045,5.475-4.285,8.19-6.449.675-.538-.071-1.5-.782-1.343-4.408.983-8.517,3.224-12.326,5.59l.974,1.666q5.23-3.91,10.072-8.286a.944.944,0,0,0-.911-1.567c-4.44,1.32-8.41,3.652-12.343,6.045l1.146,1.485c3.187-2.579,6.355-5.179,9.548-7.748.735-.591-.065-1.741-.884-1.517-4.22,1.152-8.01,3.329-11.741,5.554q.629.817,1.261,1.636c3-2.585,5.856-5.328,8.825-7.945A.969.969,0,0,0,65.3,34.8c-4.016,1.119-7.566,3.262-11.073,5.458q.657.852,1.318,1.705c3.019-2.577,5.885-5.334,8.915-7.9.742-.626-.052-1.833-.922-1.584a38.879,38.879,0,0,0-10.178,5.169q.651.842,1.3,1.687c2.445-2.242,4.739-4.653,7.046-7.034.859-.884-.22-2.028-1.232-1.6a37.207,37.207,0,0,0-7.7,4.41L54.1,36.825q3.734-3.435,7.48-6.855c.867-.794-.235-2.087-1.215-1.573-3.229,1.7-6.529,3.248-9.77,4.922l1.32,1.71A61.87,61.87,0,0,0,59.93,27.38c.614-.7.04-2.137-1.008-1.733A46.047,46.047,0,0,0,47.96,32.333l1.169,1.515A70,70,0,0,0,58.2,25.3a.9.9,0,0,0-1.079-1.4,63.7,63.7,0,0,0-9.026,5.55q.654.849,1.309,1.7a41.84,41.84,0,0,0,7.555-8.178c.643-.932-.572-1.833-1.425-1.425a29.206,29.206,0,0,0-8.779,6.443.734.734,0,0,0,.708,1.217c.285-.073.572-.147.857-.218.884-.226.5-1.521-.373-1.353Z" transform="translate(-46.552 -21.442)" fill="#fbaf00"/>
  </g>
  <g id="Group_45" data-name="Group 45" transform="translate(22.604 15.871)">
    <path id="Path_44" data-name="Path 44" d="M58.729,39.527A10.329,10.329,0,0,0,62.44,37.51q1.417-1.427,2.933-2.749c2.024-1.773,4.213-3.321,6.214-5.119q-2.873-2.219-5.747-4.436a54.25,54.25,0,0,1-4.561,5.175,36.494,36.494,0,0,1-5.123,4.75l3.933,5.1c2.956-2.336,5.7-4.932,8.651-7.277a83.97,83.97,0,0,1,8.988-5.906L72.981,22.3c-2.049,3.095-5.129,5.531-7.888,7.976A86.058,86.058,0,0,0,56.73,38.4a3.137,3.137,0,0,0-.243,4.079,3.078,3.078,0,0,0,4.008.8c5.582-4.109,10.484-9.4,17.34-11.371l-3.415-2.6c-.021-.528.331-.381-.019-.2a6.406,6.406,0,0,0-.828.7c-.679.545-1.368,1.077-2.053,1.615q-2.156,1.7-4.314,3.392c-2.805,2.206-5.588,4.444-8.379,6.669-2.722,2.171.945,7,3.759,4.869A69.183,69.183,0,0,1,82.7,35.6Q80.935,33.3,79.17,31a10.859,10.859,0,0,1-3,2.122q-2.2,1.38-4.345,2.843C68.87,37.975,66,40.1,63.2,42.3a3.163,3.163,0,0,0-.249,4.195,3.256,3.256,0,0,0,4.121.823c3.118-1.427,5.984-3.312,8.988-4.957a26.582,26.582,0,0,1,9.066-3.153L82.266,34.3c-3.637,3.323-8.379,5.8-12.814,7.878l2.977,5.093A43.68,43.68,0,0,1,82.723,42.7l-2.69-4.62a53.019,53.019,0,0,1-5.2,4.526c-1.907,1.532.176,4.461,2.275,3.908a20.8,20.8,0,0,0,2.671-.761c.851-.352,1.588-.958,2.47-1.236q-.7-1.207-1.406-2.416a5.138,5.138,0,0,1-2.192,1.664c-.811.3-1.588.662-2.4.97-2.583.972-1.519,5.125,1.157,4.2,1.884-.654,3.606-1.7,5.506-2.349q-.933-1.606-1.869-3.212a36.732,36.732,0,0,0-2.8,3.025,1.375,1.375,0,0,0,1.659,2.15,36.477,36.477,0,0,0,3.465-2.156,1.932,1.932,0,0,0-1.481-3.514,17.029,17.029,0,0,0-6.16,2.078l2.638,3.417a11.981,11.981,0,0,0,2.229-2.1,11.942,11.942,0,0,1,2.292-2.127,1.458,1.458,0,0,0-1.022-2.468c-.991.111-1.951-.168-2.935-.134a25.089,25.089,0,0,0-3.067.461q.9,2.137,1.8,4.274a52.893,52.893,0,0,1,5.722-3.857,2.756,2.756,0,0,0,1.129-3.451,2.831,2.831,0,0,0-3.26-1.6,29.678,29.678,0,0,0-11.8,4.806,2.952,2.952,0,0,0,2.977,5.093,68.9,68.9,0,0,0,6.927-3.815c2.238-1.408,4.3-3.046,6.47-4.542,2.3-1.58,1.6-5.5-1.483-5.475-7.578.069-13.925,5.269-20.5,8.364l3.87,5.016c2.745-2.206,5.579-4.3,8.506-6.26s6.2-3.528,8.351-6.4c1.647-2.2-1.081-5.41-3.535-4.6A71.893,71.893,0,0,0,58.828,41.488l4.385,4.385c3.1-2.65,6.2-5.295,9.284-7.964q2.26-1.961,4.521-3.92c1.462-1.263,2.893-2.569,2.8-4.679a2.731,2.731,0,0,0-3.417-2.6c-7.157,2.1-12.814,7.342-19.041,11.211q1.883,2.442,3.765,4.88a55.323,55.323,0,0,1,8.544-8.259c3.059-2.546,5.967-5.2,8.762-8.037a3.546,3.546,0,0,0,.543-4.2A3.476,3.476,0,0,0,75.055,20.7a42.445,42.445,0,0,0-10.809,6.784,77.554,77.554,0,0,0-8.745,8.15c-2.8,3.08,1.584,7.528,4.588,4.588,1.863-1.823,3.939-3.411,5.871-5.165s3.752-3.614,5.628-5.42c2.958-2.849-.888-8-4.433-5.747a32,32,0,0,0-6.52,5.791q-1.348,1.5-2.592,3.09a6.575,6.575,0,0,0-1.4,2.152c-.189.677-.258,1.439-.379,2.133-.228,1.3.905,3.122,2.466,2.466Z" transform="translate(-54.604 -20.537)" fill="#fbaf00"/>
  </g>
  <g id="Group_46" data-name="Group 46" transform="translate(35.469 15.57)">
    <path id="Path_45" data-name="Path 45" d="M63.237,22.534a2.35,2.35,0,0,1-.478.122l.352-.048a1.953,1.953,0,0,1-.293.019c-.048,0-.1,0-.147,0a3.254,3.254,0,0,0-.547.069l1.754,2.282a4,4,0,0,1,.484-.815L64.1,24.5a4.038,4.038,0,0,1,.733-.731l-.375.289c.063-.048.128-.094.195-.14l-2.29-2.969c-.346.327-.679.668-1.018,1a1.533,1.533,0,0,0-.421.656,1.543,1.543,0,0,0-.174.784l.071.541a1.522,1.522,0,0,0,.365.691,1.047,1.047,0,0,0,.365.365,1.53,1.53,0,0,0,.694.365l.541.073a2.01,2.01,0,0,0,1.027-.279c.073-.048.147-.094.222-.138a6.033,6.033,0,0,0,.608-.455l-.417.323a4.854,4.854,0,0,1,.436-.3l.113-.065a2.092,2.092,0,0,0,.777-.752c.036-.061.071-.119.109-.18a1.821,1.821,0,0,0,.251-.932,2.063,2.063,0,0,0-.541-1.307,1.858,1.858,0,0,0-.815-.476l-.153-.038-.05-.01-.532-.071a1.305,1.305,0,0,0-.6.094c-.281.1-.559.222-.832.35-.119.057-.237.119-.35.186a3.71,3.71,0,0,0-.7.576q1.6,1.232,3.2,2.466c.262-.392.534-.782.79-1.18a1.41,1.41,0,0,0,.224-.7,1.443,1.443,0,0,0-.034-.754l-.191-.453a1.431,1.431,0,0,0-.488-.53.943.943,0,0,0-.417-.243,1.443,1.443,0,0,0-.727-.163l-.5.069a1.878,1.878,0,0,0-.834.486,7.561,7.561,0,0,0-.608.828,6.865,6.865,0,0,0-.423.907,5.512,5.512,0,0,0-.344,1.5,1.551,1.551,0,0,0,2.336,1.341l.069-.031a2.153,2.153,0,0,0,.348-.266c.036-.031.069-.065.1-.1a5.288,5.288,0,0,0,.386-.48,3.431,3.431,0,0,0,.381-.746,1.1,1.1,0,0,0,0-.593,1.113,1.113,0,0,0-.777-.777,1.138,1.138,0,0,0-.593,0Z" transform="translate(-60.744 -20.394)" fill="#ffb900"/>
  </g>
  <g id="Group_47" data-name="Group 47" transform="translate(33.858 39.017)">
    <path id="Path_46" data-name="Path 46" d="M60.75,34.5a17.546,17.546,0,0,0,2.315.3,11.257,11.257,0,0,0,2.409-.251,1.51,1.51,0,0,0-.4-2.96c-1.236.122-2.464.329-3.692.515a1.52,1.52,0,0,0,.4,2.981c2.135-.124,4.262-.224,6.4-.268V31.674c-1.052.107-2.1.251-3.141.4q-.7.1-1.4.2l-.658.092-.411.059c-.1.013-.109.015-.04,0,.1-.013.057-.006-.122.017L62.83,35.5a52.488,52.488,0,0,1,6.682-.675q-.377-1.392-.754-2.78c-.059.025-.214.092-.067.029-.186.08-.388.142-.568.239a5.932,5.932,0,0,0-.564.383c-.369.258-.748.5-1.133.729q.484.83.97,1.659a4.475,4.475,0,0,1,1.7-.765.581.581,0,0,0-.155-1.136,10.772,10.772,0,0,0-2.028.109.993.993,0,0,0-.962.962.972.972,0,0,0,.962.96c.488,0,.974-.019,1.46-.059a4.441,4.441,0,0,0,.9-.122,9.116,9.116,0,0,0,.993-.415,1.489,1.489,0,0,0,.685-1.685,1.521,1.521,0,0,0-1.437-1.1Q65.74,31.986,62,32.5a1.561,1.561,0,0,0,.415,3.061c2.062-.266,4.132-.467,6.183-.8a1.575,1.575,0,0,0-.417-3.088c-2.133.17-4.262.285-6.4.377l.4,2.981c1.1-.149,2.2-.277,3.287-.482q-.4-1.452-.8-2.906c-.629.161-1.268.254-1.9.394-.576.13-1.148.281-1.737.358a1.089,1.089,0,0,0-1.05.928A1.063,1.063,0,0,0,60.75,34.5Z" transform="translate(-59.975 -31.584)" fill="#ffb900"/>
  </g>
  <g id="Group_48" data-name="Group 48" transform="translate(48.64 31.291)">
    <path id="Path_47" data-name="Path 47" d="M67.773,34.453a4.68,4.68,0,0,1,.6-.247c.22-.052.465-.029.689-.075.377-.075.752-.2,1.123-.3a17.528,17.528,0,0,0,2.5-.976,29.085,29.085,0,0,0,4.356-2.6,1.269,1.269,0,1,0-1.28-2.192c-1.471.773-3,1.471-4.4,2.359a23.824,23.824,0,0,0-2.135,1.444c-.3.235-.6.461-.89.7-.168.138-.3.31-.459.448a3.319,3.319,0,0,1-.57.344c-.576.323-.182,1.36.463,1.1Z" transform="translate(-67.031 -27.897)" fill="#ffb900"/>
  </g>
  <g id="Group_49" data-name="Group 49" transform="translate(44.939 39.367)">
    <path id="Path_48" data-name="Path 48" d="M66.19,34.2l-.239-.015a.687.687,0,0,0-.681.6.7.7,0,0,0,.5.763,1.826,1.826,0,0,0,1.113-.078c.335-.088.668-.174,1-.264.666-.178,1.314-.44,1.963-.666.683-.241,1.36-.476,2.022-.765.312-.136.635-.258.941-.409a8.833,8.833,0,0,0,.863-.538c.442-.287.318-1.129-.293-1.077a12.221,12.221,0,0,0-2.055.352c-.7.178-1.368.409-2.049.637s-1.381.438-2.047.721c-.622.264-1.5.471-1.875,1.066h1.2c-.094-.155-.163-.318-.362-.329Z" transform="translate(-65.264 -31.752)" fill="#ffb900"/>
  </g>
  <g id="Group_50" data-name="Group 50" transform="translate(17.829 42.53)">
    <path id="Path_49" data-name="Path 49" d="M53.483,40.118c3.237-1,6.363-2.229,9.684-2.969A43.359,43.359,0,0,1,73,36.133a57.272,57.272,0,0,1,10.317,1.094c3.419.66,6.78,1.85,10.245,2.2a1.221,1.221,0,0,0,.612-2.261c-3.2-1.576-6.914-2.217-10.4-2.847a59.714,59.714,0,0,0-11.107-1.056c-6.654.054-14.291,1.341-19.913,5.127-.851.572-.348,2.064.729,1.729Z" transform="translate(-52.325 -33.261)" fill="#1a1818"/>
  </g>
  <g id="Group_51" data-name="Group 51" transform="translate(5.074 16.789)">
    <path id="Path_50" data-name="Path 50" d="M60.9,50.118c-.84-2.118-2.6-4.052-3.972-5.862-1.416-1.875-2.885-3.715-4.253-5.623-2.374-3.308-4.909-8.163-2.554-12.158a5.115,5.115,0,0,1,4.293-2.537c2.057.029,3.333,1.823,4.389,3.361a68.033,68.033,0,0,1,6.451,11.79c.515,1.207,2.514.348,2.116-.89a47.4,47.4,0,0,0-5.485-11.588c-2.028-3.088-4.5-6.166-8.6-5.554a8.43,8.43,0,0,0-6.876,6.983c-.729,4.18.962,8.129,3.352,11.473,1.423,1.993,3.03,3.845,4.6,5.72,1.611,1.925,3.268,4.379,5.347,5.806.557.381,1.456-.262,1.194-.918Z" transform="translate(-46.237 -20.976)" fill="#1a1818"/>
  </g>
  <g id="Group_52" data-name="Group 52" transform="translate(22.387)">
    <path id="Path_51" data-name="Path 51" d="M57.466,43.719c.2-2.122-.457-4.438-.622-6.562a36.685,36.685,0,0,1,.14-6.966,21.815,21.815,0,0,1,3.623-10.371,8.749,8.749,0,0,1,8.972-3.8,12.444,12.444,0,0,1,8.106,6.539c2.238,4.3,2.175,9.116,2.286,13.826a1.382,1.382,0,0,0,2.761,0c1.012-8.846-1.812-19.764-11.19-22.846a11.313,11.313,0,0,0-11.45,2.632c-2.919,2.8-4.473,6.837-5.123,10.763a33.848,33.848,0,0,0-.281,9.156c.272,2.546.635,5.766,2.3,7.826.17.207.457.017.476-.195Z" transform="translate(-54.501 -12.962)" fill="#1a1818"/>
  </g>
  <g id="Group_53" data-name="Group 53" transform="translate(49.697 13.691)">
    <path id="Path_52" data-name="Path 52" d="M68.658,31.582c1.525-1.1,2.837-2.594,4.274-3.82a51.306,51.306,0,0,1,4.857-3.757c1.578-1.048,3.664-2.286,5.63-1.67a4.907,4.907,0,0,1,3.013,4.048c.6,3.667-.811,7.951-2.395,11.22a33.375,33.375,0,0,1-6.472,8.729c-1.358,1.393.629,3.214,2.078,2.078a26.683,26.683,0,0,0,7.729-10.765c1.7-4.069,3.178-9.437,1.377-13.692a7.246,7.246,0,0,0-4.23-4.157,8,8,0,0,0-6.447,1.079,34.476,34.476,0,0,0-5.684,4.387,22.968,22.968,0,0,0-4.764,5.282c-.344.616.388,1.5,1.035,1.037Z" transform="translate(-67.535 -19.497)" fill="#1a1818"/>
  </g>
  <g id="Group_58" data-name="Group 58" transform="translate(26.924 12.763)">
    <g id="Group_54" data-name="Group 54" transform="translate(0.026 18.54)">
      <path id="Path_53" data-name="Path 53" d="M59.067,28.774h-1.3V29.8h1.3a.492.492,0,0,1,.484.5v.421a1.9,1.9,0,0,0-.939-.249,1.964,1.964,0,0,0-1.934,1.986v.905a1.937,1.937,0,1,0,3.872,0V30.293A1.506,1.506,0,0,0,59.067,28.774Zm.484,4.582a.937.937,0,1,1-1.873,0v-.905a.937.937,0,1,1,1.873,0v.905Z" transform="translate(-56.678 -26.948)" fill="#181617"/>
      <path id="Path_54" data-name="Path 54" d="M64.726,32.906V30.293a1.5,1.5,0,0,0-1.485-1.519h-1.3V29.8h1.3a.491.491,0,0,1,.486.5v.421a1.879,1.879,0,0,0-.937-.249,1.965,1.965,0,0,0-1.936,1.986v.905a1.937,1.937,0,1,0,3.872,0Zm-1,.45a.937.937,0,1,1-1.873,0v-.905a.937.937,0,1,1,1.873,0v.905Z" transform="translate(-52.104 -26.948)" fill="#181617"/>
      <path id="Path_55" data-name="Path 55" d="M66.373,35.342a1.961,1.961,0,0,0,1.934-1.986V30.293a1.5,1.5,0,0,0-1.483-1.519h-1.3V29.8h1.3a.491.491,0,0,1,.486.5v.421a1.884,1.884,0,0,0-.937-.249,1.962,1.962,0,0,0-1.934,1.986v.905A1.96,1.96,0,0,0,66.373,35.342Zm-.937-2.891a.937.937,0,1,1,1.873,0v.905a.937.937,0,1,1-1.873,0Z" transform="translate(-48.178 -26.948)" fill="#181617"/>
      <path id="Path_56" data-name="Path 56" d="M64.119,30.293a.49.49,0,0,1,.484-.5h1.3V28.774H64.6a1.5,1.5,0,0,0-1.483,1.519v4.945h1Z" transform="translate(-49.623 -26.948)" fill="#181617"/>
      <path id="Path_57" data-name="Path 57" d="M62.919,36.191,60.234,32.93l2.615-3.178H61.543l-1.559,1.894V27.9h-1v8.289h1V34.215l1.63,1.977Z" transform="translate(-54.15 -27.903)" fill="#181617"/>
    </g>
    <g id="Group_57" data-name="Group 57">
      <g id="Group_55" data-name="Group 55">
        <path id="Path_58" data-name="Path 58" d="M60.9,20.865C71.706,12.679,85.943,36.06,68.176,37.48c-3.524.2-7.254-.585-9.548-3.053C54.943,30.44,57.189,23.675,60.9,20.865Z" transform="translate(-56.578 -18.969)" fill="#ffb600"/>
        <path id="Path_59" data-name="Path 59" d="M67.224,37.758c-2.508,0-6.193-.511-8.63-3.134a7.612,7.612,0,0,1-1.89-6.017,11.4,11.4,0,0,1,4.182-7.788c3.08-2.332,6.82-2.353,10.26-.057,4.054,2.707,6.459,7.79,5.475,11.574-.809,3.113-3.771,5.028-8.345,5.393C67.957,37.747,67.605,37.758,67.224,37.758Zm-1.3-18.368a7.952,7.952,0,0,0-4.842,1.693h0a11.049,11.049,0,0,0-4.05,7.553,7.346,7.346,0,0,0,1.8,5.764c2.713,2.921,7.065,3.132,9.416,3,5.663-.453,7.5-3.049,8.05-5.148.949-3.656-1.4-8.582-5.339-11.213A9.07,9.07,0,0,0,65.927,19.389Z" transform="translate(-56.666 -19.054)" fill="#fff"/>
      </g>
      <g id="Group_56" data-name="Group 56" transform="translate(2.42 1.538)">
        <path id="Path_60" data-name="Path 60" d="M73.908,30.253a5.986,5.986,0,0,1-3.2,1.127,5.14,5.14,0,0,1-.729-.059,1.659,1.659,0,0,1-1.286-.83c-.5-.83-.578-2.3-.241-4.241.291-1.655.549-3.067.605-3.222a.57.57,0,0,0-.111-.513c-.287-.417-.928-.993-1.263-.993a.347.347,0,0,0-.142.034l-.008.006a12.222,12.222,0,0,1-2.615,1.094c0-.021.038-2.73-.9-2.833a2.233,2.233,0,0,0-.239-.036,1,1,0,0,0-.6.189c-.306.245-.277.683-.237,1.284,0,.082.01.168.017.26a12.464,12.464,0,0,1-.046,1.867,5.766,5.766,0,0,1-2.449-.025,2.662,2.662,0,0,1-.36-.1,1.764,1.764,0,0,0-.541-.1.677.677,0,0,0-.233.038.635.635,0,0,0-.427.7c.059.553.4.89,1.029,1.152a7.651,7.651,0,0,0,2.458.4c-.321,1.441-.817,3.172-3.866,6.258-.321.327-.723.622-.7,1.05a.527.527,0,0,0,.4.528,3.257,3.257,0,0,0,2.38-1.069c1.745-1.557,2.994-2.893,4.067-6.994.518-.178,1.19-.377,1.62-.522A28.72,28.72,0,0,0,65.9,30a4.037,4.037,0,0,0,2.045,3.553,4.984,4.984,0,0,0,1.559.486c.107.01.226.015.327.015h0a4.153,4.153,0,0,0,3.258-1.452,6.31,6.31,0,0,0,1.121-1.961.461.461,0,0,1,.038-.1l.26-.652Z" transform="translate(-57.821 -19.788)" fill="#fff"/>
      </g>
    </g>
  </g>
</svg>
